<svg xmlns="http://www.w3.org/2000/svg" width="140" height="88" viewBox="0 0 140 88">
  <g fill="none" fill-rule="evenodd">
    <g transform="rotate(15 22.278 198.57)">
      <g transform="translate(.294 30.12)">
        <polygon fill="#FF704C" points="22.683 14.433 1.931 41.92 0 40.462 20.752 12.975"/>
        <polygon fill="#FF957A" points="25.69 1.458 15.85 14.492 13.919 13.034 23.759 0"/>
        <polygon fill="#FFCD7C" points="25.508 10.692 16.92 22.067 14.989 20.609 23.577 9.234"/>
        <polygon fill="#B1E3EC" points="16.37 13.803 3.671 30.622 1.74 29.165 14.438 12.345"/>
        <polygon fill="#FFCD7C" points="34.301 9.205 9.31 42.306 7.379 40.848 32.369 7.747"/>
        <polygon fill="#B1E3EC" points="16.852 32.316 12.003 38.74 10.072 37.282 14.921 30.858"/>
      </g>
      <path fill="#3F4639" d="M53.6611572,14.5759197 C51.2371438,17.7865552 46.6695853,18.4242809 43.4589498,16.0002676 C40.2487826,13.5762542 39.6110569,9.00869565 42.034602,5.79852843 C44.4586154,2.58789298 55.5392174,0 55.5392174,0 C55.5392174,0 56.0851706,11.3657525 53.6611572,14.5759197"/>
      <polygon fill="#4E5747" points="30.969 44.632 19.343 35.854 42.496 5.187 54.122 13.964"/>
      <polygon fill="#3F4639" points="19.284 35.932 10.769 36.633 23.25 20.102 31.765 19.401"/>
      <polygon fill="#3F4639" points="30.911 44.709 32.569 53.091 45.049 36.56 43.391 28.179"/>
    </g>
    <path fill="#B1E3EC" d="M88.5183431,25.1022162 C87.8302259,25.3652283 87.1682105,25.7085283 86.5470803,26.1245657 C86.4209601,26.2091323 86.2946089,26.2982292 86.1973624,26.419542 C86.1072766,26.531794 86.0456024,26.6666979 85.9850832,26.8003433 C85.8136892,27.1786277 85.6402162,27.5717616 85.6235849,27.9935877 C85.5972522,28.6572844 85.9587505,29.2565493 86.3052344,29.8032118 C86.4186502,29.981909 86.5336829,30.1628714 86.6852119,30.3040674 C86.8196477,30.4294072 86.9785683,30.5192592 87.136796,30.6060909 C87.3876504,30.744015 87.6447415,30.8784154 87.9207738,30.9363033 C88.1048722,30.9748113 88.2933595,30.9780832 88.4809229,30.9813551 C88.975702,30.9896607 89.473484,30.9972113 89.9622574,30.9136515 C90.1500517,30.8816874 90.3406179,30.8341187 90.5011555,30.7226216 C90.6681608,30.6063426 90.7903541,30.4296589 90.9090826,30.2564987 C91.2546426,29.7521195 91.615448,29.2011783 91.6221467,28.571711 C91.6239946,28.3849598 91.593966,28.1999705 91.5643993,28.0162395 C91.5357566,27.8405625 91.507114,27.6648855 91.4787023,27.4892085 C91.4542174,27.3379451 91.4295016,27.1856749 91.3789149,27.0422137 C91.2599554,26.7039474 91.0109489,26.4442072 90.8109122,26.1547681 C90.7226742,26.0269114 90.6432139,25.8920076 90.5485083,25.7696881 C90.1472798,25.2507111 89.5051295,25.009344 88.8826133,24.9861888 L88.5183431,25.1022162 Z"/>
    <path fill="#B1E3EC" d="M81.5183431,31.1022162 C80.8302259,31.3652283 80.1682105,31.7085283 79.5470803,32.1245657 C79.4209601,32.2091323 79.2946089,32.2982292 79.1973624,32.419542 C79.1072766,32.531794 79.0456024,32.6666979 78.9850832,32.8003433 C78.8136892,33.1786277 78.6402162,33.5717616 78.6235849,33.9935877 C78.5972522,34.6572844 78.9587505,35.2565493 79.3052344,35.8032118 C79.4186502,35.981909 79.5336829,36.1628714 79.6852119,36.3040674 C79.8196477,36.4294072 79.9785683,36.5192592 80.136796,36.6060909 C80.3876504,36.744015 80.6447415,36.8784154 80.9207738,36.9363033 C81.1048722,36.9748113 81.2933595,36.9780832 81.4809229,36.9813551 C81.975702,36.9896607 82.473484,36.9972113 82.9622574,36.9136515 C83.1500517,36.8816874 83.3406179,36.8341187 83.5011555,36.7226216 C83.6681608,36.6063426 83.7903541,36.4296589 83.9090826,36.2564987 C84.2546426,35.7521195 84.615448,35.2011783 84.6221467,34.571711 C84.6239946,34.3849598 84.593966,34.1999705 84.5643993,34.0162395 C84.5357566,33.8405625 84.507114,33.6648855 84.4787023,33.4892085 C84.4542174,33.3379451 84.4295016,33.1856749 84.3789149,33.0422137 C84.2599554,32.7039474 84.0109489,32.4442072 83.8109122,32.1547681 C83.7226742,32.0269114 83.6432139,31.8920076 83.5485083,31.7696881 C83.1472798,31.2507111 82.5051295,31.009344 81.8826133,30.9861888 L81.5183431,31.1022162 Z" transform="rotate(-155 81.622 33.986)"/>
    <path fill="#B1E3EC" d="M73.5183431,37.1022162 C72.8302259,37.3652283 72.1682105,37.7085283 71.5470803,38.1245657 C71.4209601,38.2091323 71.2946089,38.2982292 71.1973624,38.419542 C71.1072766,38.531794 71.0456024,38.6666979 70.9850832,38.8003433 C70.8136892,39.1786277 70.6402162,39.5717616 70.6235849,39.9935877 C70.5972522,40.6572844 70.9587505,41.2565493 71.3052344,41.8032118 C71.4186502,41.981909 71.5336829,42.1628714 71.6852119,42.3040674 C71.8196477,42.4294072 71.9785683,42.5192592 72.136796,42.6060909 C72.3876504,42.744015 72.6447415,42.8784154 72.9207738,42.9363033 C73.1048722,42.9748113 73.2933595,42.9780832 73.4809229,42.9813551 C73.975702,42.9896607 74.473484,42.9972113 74.9622574,42.9136515 C75.1500517,42.8816874 75.3406179,42.8341187 75.5011555,42.7226216 C75.6681608,42.6063426 75.7903541,42.4296589 75.9090826,42.2564987 C76.2546426,41.7521195 76.615448,41.2011783 76.6221467,40.571711 C76.6239946,40.3849598 76.593966,40.1999705 76.5643993,40.0162395 C76.5357566,39.8405625 76.507114,39.6648855 76.4787023,39.4892085 C76.4542174,39.3379451 76.4295016,39.1856749 76.3789149,39.0422137 C76.2599554,38.7039474 76.0109489,38.4442072 75.8109122,38.1547681 C75.7226742,38.0269114 75.6432139,37.8920076 75.5485083,37.7696881 C75.1472798,37.2507111 74.5051295,37.009344 73.8826133,36.9861888 L73.5183431,37.1022162 Z" transform="rotate(49 73.622 39.986)"/>
  </g>
</svg>
