<svg xmlns="http://www.w3.org/2000/svg" width="140" height="88" viewBox="0 0 140 88">
  <g fill="none" fill-rule="evenodd">
    <path fill="#FF957A" d="M89.3912388,28 C88.9025749,28.9286147 80.3912388,54.6457722 80.3912388,54.6457722 L90.4790131,55.6642618 L89.0697031,62 L96.8041642,55 L106.804164,54.1512747 L109.386998,25 L89.3912388,28 Z"/>
    <path fill="#4E5747" d="M42.2002392,16 C41.4528104,17.4486389 39.1970361,26 41.2002392,36 L48.2002392,38 L47.2002392,45 L55.2002392,38 L76.2002392,39 L81.2002392,18 L42.2002392,16 Z" transform="matrix(-1 0 0 1 121.591 0)"/>
    <path fill="#FFCD7C" d="M35.8435331,45 C35.0961042,46.4486389 29.8403299,55 31.8435331,65 L51.8435331,65 L49.8435331,70 L58.8435331,65 L66.8435331,64.7559886 L66.8435331,45 L35.8435331,45 Z" transform="scale(-1 1) rotate(7 0 -745.562)"/>
    <circle cx="94.21" cy="47.7" r="1" fill="#375471"/>
    <g fill="#4E5747" transform="rotate(-22 148.593 -86.259)">
      <circle cx="1.362" cy="12.907" r="1"/>
      <path d="M2.88344839,8.48671322 C5.99737508,9.61198065 8.01172374,8.59545309 8.40800805,5.45627153 C9.03740829,0.470453011 1.94152296,-1.10017336 0.492861658,3.18889534 C0.346727272,3.62155715 0.564718198,4.09579404 0.979758019,4.24813308 C1.39479784,4.40047212 1.84971942,4.17322562 1.9958538,3.74056381 C2.82022883,1.29982688 7.20307047,2.26993933 6.82819324,5.23954394 C6.55819892,7.37831442 5.42139222,7.84526588 2.77675015,6.66406297 L1.73813882,6.18731364 L0.997477752,9.68863343 C0.902722507,10.136569 1.17424196,10.5797682 1.60393342,10.6785466 C2.03362489,10.777325 2.45877295,10.4942773 2.55352819,10.0463417 L2.88344839,8.48671322 Z"/>
    </g>
    <circle cx="61.218" cy="32.99" r="1" fill="#C5E9EF" transform="rotate(-12 61.218 32.99)"/>
    <path fill="#375471" d="M96.4362708,42.3462044 C100.328679,43.6965253 102.846615,42.4766922 103.34197,38.7096744 C104.128721,32.7266922 95.2588641,30.8419405 93.4480374,35.9888229 C93.2653694,36.5080171 93.5378581,37.0771014 94.0566579,37.2599082 C94.5754577,37.4427151 95.1441096,37.1700193 95.3267776,36.6508251 C96.3572464,33.7219408 101.835798,34.8860757 101.367202,38.4496013 C101.029709,41.0161258 99.6087006,41.5764676 96.302898,40.1590241 L95.0046339,39.5869249 L94.0788075,43.7885086 C93.9603635,44.3260313 94.2997628,44.8578704 94.8368771,44.9764045 C95.3739915,45.0949386 95.9054265,44.7552812 96.0238706,44.2177586 L96.4362708,42.3462044 Z"/>
    <path fill="#C5E9EF" d="M61.9032648,27.121204 C65.0171915,28.2464714 67.0315401,27.2299438 67.4278244,24.0907623 C68.0572247,19.1049437 60.9613393,17.5343174 59.512678,21.8233861 C59.3665436,22.2560479 59.5845346,22.7302848 59.9995744,22.8826238 C60.4146142,23.0349629 60.8695358,22.8077164 61.0156702,22.3750545 C61.8400452,19.9343176 66.2228868,20.9044301 65.8480096,23.8740347 C65.5780153,26.0128052 64.4412086,26.4797566 61.7965665,25.2985537 L60.7579552,24.8218044 L60.0172941,28.3231242 C59.9225389,28.7710597 60.1940583,29.2142589 60.6237498,29.3130373 C61.0534413,29.4118158 61.4785893,29.128768 61.5733446,28.6808324 L61.9032648,27.121204 Z" transform="rotate(-12 63.467 24.333)"/>
  </g>
</svg>
