<svg xmlns="http://www.w3.org/2000/svg" width="140" height="88" viewBox="0 0 140 88">
  <g fill="none" fill-rule="evenodd" transform="translate(45 16)">
    <path fill="#375471" stroke="#FFCD7C" stroke-width="2" d="M0,9.92 C0,9.92 2.19607843,8.74666667 6.58823529,6.4 L13.5424837,3.2 L20.130719,1.28 L24.5228758,0 C29.8910675,1.49333333 33.4291939,2.56 35.1372549,3.2 C36.8453159,3.84 40.3834423,5.44 45.751634,8 L49.7777778,10.88 C46.0892485,26.1863449 43.6491613,35.5730116 42.4575163,39.04 C41.5347431,41.7247291 39.295861,46.2115551 38.7973856,46.72 C36.6013072,48.96 27.0849673,56 24.5228758,56 C21.9607843,56 14.6405229,51.2 12.0784314,48.96 C9.51633987,46.72 5.85620915,41.92 4.02614379,39.04 C2.19607843,36.16 0,9.92 0,9.92 Z"/>
    <polygon fill="#C5E9EF" points="11.712 30.637 13.476 29.001 15.239 27.774 20.528 36.364 27.933 26.138 33.222 18.365 35.691 14.275 40.627 14.275 35.691 22.865 31.459 29.001 27.933 34.319 24.054 40.046 22.644 42.092 18.765 42.092"/>
  </g>
</svg>
