<svg width="160" height="140" viewBox="0 0 160 140" fill="none" xmlns="http://www.w3.org/2000/svg">
<path fill-rule="evenodd" clip-rule="evenodd" d="M20.5404 30H53.9H71.9H114.2L126.8 30.9217L139.83 30.1804C141.484 30.0863 142.901 31.3509 142.995 33.0051C142.998 33.0619 143 33.1187 143 33.1755V42.9032V50.2764L142.1 92.6725L143 105.576V113C143 114.105 142.105 115 141 115H131.3L106.1 113.87L69.2 115H39.5H19C17.8954 115 17 114.105 17 113V109.262V83.4559V54.8847V42.9032L18.5595 31.7237C18.6974 30.7354 19.5426 30 20.5404 30Z" fill="#F0F0EF"/>
<path fill-rule="evenodd" clip-rule="evenodd" d="M88.0947 105.6L99.7414 105.593L110.8 104.518L113.047 104.316L114.183 104.228L114.509 104.211L115.742 104.191L118.408 104.182L121 105L120.83 102.8L116.642 102.803L115.125 102.815L114.389 102.83L113.885 102.858L112.247 102.992L107.588 103.428L99.6036 104.217L75.4507 104.218L75.394 105.6H88.0947Z" fill="#FFD7C6"/>
<path fill-rule="evenodd" clip-rule="evenodd" d="M74.8218 105.565L62.0708 105.566L61.8076 105.56L61.4642 105.54L60.7977 105.486L59.948 105.402L58.5269 105.243L56.7724 105.031L53.5064 104.612L50.1941 104.169L50.6081 102.814L54.9608 103.392L58.3208 103.814L60.1002 104.019L61.145 104.124L61.7048 104.168L62.0708 104.183L74.8163 104.182L74.8218 105.565Z" fill="#D5A8E7"/>
<path fill-rule="evenodd" clip-rule="evenodd" d="M38 100.798L40.394 100L40.24 106.846H38V100.798Z" fill="#7D4D99"/>
<path fill-rule="evenodd" clip-rule="evenodd" d="M42.2 100.798L44.594 100L44.44 106.846H42.2V100.798Z" fill="#7D4D99"/>
<path fill-rule="evenodd" clip-rule="evenodd" d="M77.1617 108.344C75.7638 108.481 74.1779 108.43 73.0459 107.455C71.9138 106.479 71.0539 105.088 71.2131 104.493C71.3725 103.898 71.102 101.953 72.7114 101.147C74.3208 100.341 75.6803 99.8202 76.7088 100.058C79.7085 100.751 79.9626 104.44 79.2816 106.236C78.8411 107.398 77.6709 108.294 77.1617 108.344Z" fill="#7D4D99"/>
<path fill-rule="evenodd" clip-rule="evenodd" d="M37.2917 38H59.1719C79.6629 38 89.9084 38 89.9084 38H120.124L122.208 42.9209C122.208 42.9209 123.25 74.0863 123.25 75.3165C123.25 76.1367 122.902 82.5611 122.208 94.5899C116.651 94.5899 112.31 94.5899 109.184 94.5899C104.495 94.5899 82.0941 94.1799 80.0102 94.5899C77.9264 95 60.7348 94.1799 56.0462 94.5899C51.3575 95 39.8965 95 37.8126 95C35.7288 95 37.2917 89.259 37.2917 89.259C37.2917 89.259 36.9444 82.5611 36.2498 69.1655C36.2498 61.7842 36.2498 57.5468 36.2498 56.4532C36.2498 54.8129 36.2498 43.741 36.2498 43.741C36.2498 43.741 36.5971 41.8273 37.2917 38Z" fill="#FEFEFE"/>
<path fill-rule="evenodd" clip-rule="evenodd" d="M70.1899 49H81.5299C92.1499 49 97.4599 49 97.4599 49H113.12L114.2 52.24C114.2 52.24 114.74 72.76 114.74 73.57C114.74 74.11 114.56 78.34 114.2 86.26C111.32 86.26 109.07 86.26 107.45 86.26C105.02 86.26 93.4099 85.99 92.3299 86.26C91.2499 86.53 82.3399 85.99 79.9099 86.26C77.4799 86.53 71.5399 86.53 70.4599 86.53C69.3799 86.53 70.1899 82.75 70.1899 82.75C70.1899 82.75 70.0099 78.34 69.6499 69.52C69.6499 64.66 69.6499 61.87 69.6499 61.15C69.6499 60.07 69.6499 52.78 69.6499 52.78C69.6499 52.78 69.8299 51.52 70.1899 49Z" fill="#FFEBE3"/>
<path fill-rule="evenodd" clip-rule="evenodd" d="M58.1838 66.8289C57.988 66.948 57.7772 67.0855 57.7013 67.3136C57.6704 67.4072 57.6654 67.5085 57.6376 67.6033C57.6121 67.6907 57.5676 67.7703 57.5415 67.8575C57.5072 67.9716 57.5053 68.0939 57.5039 68.2141C57.5022 68.3602 57.5009 68.5065 57.5001 68.6526C57.4997 68.7274 57.4995 68.8035 57.5206 68.8744C57.5409 68.9415 57.5791 69.0002 57.619 69.0563C58.1088 69.7454 58.9385 70.1662 59.7353 70.0367C59.9125 70.0079 60.0853 69.9539 60.2572 69.8994C60.4307 69.8444 60.6137 69.7825 60.733 69.6362C60.7852 69.5725 60.822 69.496 60.8584 69.4203C60.9298 69.2719 61.0009 69.1234 61.0723 68.9746C61.1336 68.8469 61.1954 68.7181 61.2341 68.5806C61.3139 68.296 61.2888 67.9788 61.1655 67.7129C61.1292 67.6344 61.0847 67.5605 61.0393 67.4878C60.915 67.2881 60.7827 67.0943 60.6434 66.9068C60.4637 66.6659 60.2587 66.4257 59.9862 66.3295C59.6116 66.1974 59.2104 66.3662 58.8188 66.4149" fill="#FFD7C6"/>
<path fill-rule="evenodd" clip-rule="evenodd" d="M101.218 77.755C98.2644 76.7731 96.5415 76.5277 96.0493 77.0186C95.5571 77.5095 94.0803 77.755 91.6191 77.755H86.4505H83.4971V72.6004V66.7095L82.7587 62.2913L79.0669 65.9731L73.1599 63.0277L82.0203 54.9277L87.9273 54.1913C89.404 55.664 90.8807 56.4004 92.3575 56.4004C94.5726 56.4004 97.526 54.9277 97.526 54.1913C97.526 53.7004 99.7411 53.455 104.171 53.455L109.34 57.1368L107.863 61.555L101.218 60.0822V68.9186V77.755Z" fill="#FFD7C6"/>
<path fill-rule="evenodd" clip-rule="evenodd" d="M58.094 73.5699H61.55V77.8899H57.23L58.094 73.5699Z" fill="#FFD7C6"/>
<path fill-rule="evenodd" clip-rule="evenodd" d="M59.3899 74.38V76.27H60.4699V76.81H58.8499V74.38H59.3899Z" fill="#FF957A"/>
<path fill-rule="evenodd" clip-rule="evenodd" d="M55.7083 59.7275L55.7031 59.7322C55.1856 60.1935 54.9521 60.3079 54.5998 60.1696C54.4453 60.1088 54.3298 60.0277 54.0781 59.8202L54.0753 59.8178C53.8402 59.6239 53.7293 59.5424 53.5728 59.4645C53.0749 59.2165 52.6921 59.313 52.1748 59.6898C52.1409 59.7146 52.1057 59.7408 52.0627 59.7732C52.0405 59.7901 51.964 59.8481 51.9519 59.8573C51.8093 59.9653 51.7182 60.0303 51.621 60.091C51.2396 60.3291 50.9972 60.2764 50.6001 59.9618C50.5583 59.9287 50.5166 59.8946 50.4298 59.8234C50.1278 59.5765 49.9414 59.4571 49.6941 59.3877C49.2428 59.261 48.96 59.397 48.4264 59.8448L48.4113 59.8574C47.9694 60.2282 47.7616 60.3288 47.4519 60.2466C47.2549 60.1943 47.1055 60.1015 46.7886 59.8589L46.7612 59.8379C46.2802 59.4699 46.0167 59.3427 45.6199 59.3883L45.6524 59.7204C45.9511 59.6861 46.1601 59.7869 46.5832 60.1107L46.6105 60.1316C46.9588 60.3982 47.1312 60.5054 47.3785 60.571C47.8104 60.6856 48.088 60.5512 48.6002 60.1214L48.6154 60.1087C49.0775 59.7209 49.2893 59.619 49.6167 59.711C49.8137 59.7662 49.9724 59.8679 50.244 60.0899C50.3302 60.1607 50.374 60.1965 50.418 60.2313C50.9036 60.616 51.2698 60.6957 51.775 60.3803C51.882 60.3136 51.9792 60.2441 52.1287 60.131C52.141 60.1216 52.2173 60.0636 52.2392 60.0471C52.2809 60.0156 52.3147 59.9904 52.347 59.9669C52.7842 59.6484 53.063 59.5781 53.4438 59.7679C53.5729 59.8321 53.6713 59.9045 53.8884 60.0835L53.8912 60.0859C54.1675 60.3137 54.3009 60.4073 54.4946 60.4835C54.987 60.6768 55.3015 60.5227 55.8991 59.99L55.9044 59.9853C56.3649 59.5749 56.2708 59.2262 55.7083 59.7275ZM61.253 57.3258C61.2305 57.308 61.2305 57.308 61.2078 57.29C60.8386 56.9974 60.647 56.883 60.3651 56.8425C59.9806 56.7872 59.7297 56.9144 59.3597 57.2544C59.3397 57.2728 59.2679 57.3394 59.2719 57.3356C59.1193 57.4767 59.0287 57.5515 58.9228 57.6166C58.5201 57.8642 58.2133 57.7845 57.7012 57.3975C57.6724 57.3757 57.6422 57.3526 57.6062 57.3246C57.5834 57.307 57.5581 57.2873 57.5095 57.2495C57.4691 57.218 57.4392 57.1949 57.4096 57.1723C56.8388 56.7365 56.2708 56.7962 55.7083 57.2975L55.7031 57.3022C55.1856 57.7635 54.9521 57.8779 54.5998 57.7396C54.4453 57.6788 54.3298 57.5977 54.0781 57.3902L54.0753 57.3878C53.8402 57.1939 53.7293 57.1124 53.5728 57.0345C53.0749 56.7865 52.6921 56.883 52.1748 57.2598C52.1409 57.2846 52.1057 57.3108 52.0627 57.3432C52.0405 57.3601 51.964 57.4181 51.9519 57.4273C51.8093 57.5353 51.7182 57.6003 51.621 57.661C51.2396 57.8991 50.9972 57.8464 50.6001 57.5318C50.5583 57.4987 50.5166 57.4646 50.4298 57.3934C50.1278 57.1465 49.9414 57.0271 49.6941 56.9577C49.2428 56.831 48.96 56.967 48.4264 57.4148L48.4113 57.4274C47.9694 57.7982 47.7616 57.8988 47.4519 57.8166C47.2549 57.7643 47.1055 57.6715 46.7886 57.4289L46.7612 57.4079C46.2802 57.0399 46.0167 56.9127 45.6199 56.9583L45.6524 57.2904C45.9511 57.2561 46.1601 57.3569 46.5832 57.6807L46.6105 57.7016C46.9588 57.9682 47.1312 58.0754 47.3785 58.141C47.8104 58.2556 48.088 58.1212 48.6002 57.6914L48.6154 57.6787C49.0775 57.2909 49.2893 57.189 49.6167 57.281C49.8137 57.3362 49.9724 57.4379 50.244 57.6599C50.3302 57.7307 50.374 57.7665 50.418 57.8013C50.9036 58.186 51.2698 58.2657 51.775 57.9503C51.882 57.8836 51.9792 57.8141 52.1287 57.701C52.141 57.6916 52.2173 57.6336 52.2392 57.6171C52.2809 57.5856 52.3147 57.5604 52.347 57.5369C52.7842 57.2184 53.063 57.1481 53.4438 57.3379C53.5729 57.4021 53.6713 57.4745 53.8884 57.6535L53.8912 57.6559C54.1675 57.8837 54.3009 57.9773 54.4946 58.0535C54.987 58.2468 55.3015 58.0927 55.8991 57.56L55.9044 57.5553C56.3649 57.1449 56.7812 57.1011 57.2318 57.4451C57.2605 57.4671 57.2897 57.4897 57.3295 57.5207C57.378 57.5584 57.4036 57.5783 57.4266 57.5962C57.4636 57.6249 57.4948 57.6487 57.5247 57.6714C58.1237 58.124 58.5443 58.2333 59.0751 57.907C59.2026 57.8286 59.3056 57.7436 59.4722 57.5896C59.4686 57.5929 59.5399 57.5269 59.5593 57.509C59.8691 57.2244 60.0478 57.1337 60.3245 57.1735C60.5382 57.2042 60.6972 57.2992 61.0256 57.5595C61.0483 57.5774 61.0483 57.5774 61.071 57.5954C61.1705 57.6741 61.3475 57.4005 61.253 57.3258ZM59.3597 54.8244C59.3397 54.8428 59.2679 54.9094 59.2719 54.9056C59.1193 55.0467 59.0287 55.1215 58.9228 55.1866C58.5201 55.4342 58.2133 55.3545 57.7012 54.9675C57.6724 54.9457 57.6422 54.9226 57.6062 54.8946C57.5834 54.877 57.5581 54.8573 57.5095 54.8195C57.4691 54.788 57.4392 54.7649 57.4096 54.7423C56.8388 54.3065 56.2708 54.3662 55.7083 54.8675L55.7031 54.8722C55.1856 55.3335 54.9521 55.4479 54.5998 55.3096C54.4453 55.2488 54.3298 55.1677 54.0781 54.9602L54.0753 54.9578C53.8402 54.7639 53.7293 54.6824 53.5728 54.6045C53.0749 54.3565 52.6921 54.453 52.1748 54.8298C52.1409 54.8546 52.1057 54.8808 52.0627 54.9132C52.0405 54.9301 51.964 54.9881 51.9519 54.9973C51.8093 55.1053 51.7182 55.1703 51.621 55.231C51.2396 55.4691 50.9972 55.4164 50.6001 55.1018C50.5583 55.0687 50.5166 55.0346 50.4298 54.9634C50.1278 54.7165 49.9414 54.5971 49.6941 54.5277C49.2428 54.401 48.96 54.537 48.4264 54.9848L48.4113 54.9974C47.9694 55.3682 47.7616 55.4688 47.4519 55.3866C47.2549 55.3343 47.1055 55.2415 46.7886 54.9989L46.7612 54.9779C46.2802 54.6099 46.0167 54.4827 45.6199 54.5283L45.6524 54.8604C45.9511 54.8261 46.1601 54.9269 46.5832 55.2507L46.6105 55.2716C46.9588 55.5382 47.1312 55.6454 47.3785 55.711C47.8104 55.8256 48.088 55.6912 48.6002 55.2614L48.6154 55.2487C49.0775 54.8609 49.2893 54.759 49.6167 54.851C49.8137 54.9062 49.9724 55.0079 50.244 55.2299C50.3302 55.3007 50.374 55.3365 50.418 55.3713C50.9036 55.756 51.2698 55.8357 51.775 55.5203C51.882 55.4536 51.9792 55.3841 52.1287 55.271C52.141 55.2616 52.2173 55.2036 52.2392 55.1871C52.2809 55.1556 52.3147 55.1304 52.347 55.1069C52.7842 54.7884 53.063 54.7181 53.4438 54.9079C53.5729 54.9721 53.6713 55.0445 53.8884 55.2235L53.8912 55.2259C54.1675 55.4537 54.3009 55.5473 54.4946 55.6235C54.987 55.8168 55.3015 55.6627 55.8991 55.13L55.9044 55.1253C56.3649 54.7149 56.7812 54.6711 57.2318 55.0151C57.2605 55.0371 57.2897 55.0597 57.3295 55.0907C57.378 55.1284 57.4036 55.1483 57.4266 55.1662C57.4636 55.1949 57.4948 55.2187 57.5247 55.2414C58.1237 55.694 58.5443 55.8033 59.0751 55.477C59.2026 55.3986 59.3056 55.3136 59.4722 55.1596C59.4686 55.1629 59.5399 55.0969 59.5593 55.079C59.8691 54.7944 59.7299 54.4844 59.3597 54.8244Z" fill="#FFD7C6"/>
<path fill-rule="evenodd" clip-rule="evenodd" d="M45.936 67.0205C45.7681 67.1226 45.5874 67.2405 45.5224 67.4359C45.4959 67.5162 45.4916 67.603 45.4678 67.6843C45.4459 67.7592 45.4078 67.8275 45.3854 67.9021C45.356 68 45.3544 68.1048 45.3532 68.2078C45.3517 68.333 45.3507 68.4585 45.3499 68.5837C45.3496 68.6478 45.3494 68.713 45.3675 68.7738C45.3849 68.8313 45.4176 68.8816 45.4519 68.9297C45.8717 69.5204 46.5829 69.881 47.2658 69.7701C47.4177 69.7454 47.5658 69.699 47.7132 69.6523C47.8618 69.6053 48.0187 69.5522 48.121 69.4268C48.1658 69.3722 48.1973 69.3066 48.2285 69.2417C48.2897 69.1146 48.3506 68.9872 48.4119 68.8596C48.4643 68.7502 48.5174 68.6399 48.5505 68.522C48.6189 68.278 48.5974 68.0062 48.4917 67.7783C48.4606 67.7109 48.4224 67.6476 48.3836 67.5853C48.277 67.4141 48.1636 67.248 48.0442 67.0872C47.8901 66.8808 47.7144 66.6749 47.4809 66.5925C47.1598 66.4792 46.8159 66.6239 46.4803 66.6656" fill="#FFD7C6"/>
<path fill-rule="evenodd" clip-rule="evenodd" d="M46.0723 65.4118C46.1954 65.3965 46.319 65.3737 46.4428 65.3486L46.8143 65.2718C47.1853 65.1988 47.5535 65.1531 47.9068 65.2777C48.335 65.4288 48.6571 65.8063 48.9395 66.1848C49.1585 66.4795 49.3663 66.7841 49.5617 67.0979C49.6329 67.2122 49.7029 67.3282 49.76 67.4517C49.9537 67.8695 49.9931 68.3679 49.8677 68.8151C49.8272 68.9592 49.7705 69.0972 49.7087 69.2326L49.2773 70.1347C49.2202 70.2535 49.1624 70.3738 49.0803 70.4739C48.8928 70.7039 48.6052 70.8012 48.3327 70.8875C48.0624 70.9731 47.7909 71.058 47.5124 71.1033C46.2604 71.3067 44.9565 70.6455 44.1869 69.5626C44.1242 69.4745 44.0641 69.3822 44.0322 69.2768C44.0101 69.2025 44.0029 69.1246 44.0007 69.0461L44.0025 68.5837L44.006 68.2392C44.0083 68.0503 44.0112 67.8582 44.0651 67.6788C44.1061 67.5419 44.176 67.4166 44.2161 67.2794C44.2598 67.1304 44.2677 66.9712 44.3163 66.8241C44.4205 66.5105 44.6872 66.3058 44.9584 66.1342L45.0744 66.0624L46.0723 65.4118ZM47.7272 65.787C47.553 65.7255 47.379 65.722 47.0435 65.7796L46.3265 65.9201L46.2659 65.93L45.355 66.5238C45.0118 66.7325 44.8749 66.8554 44.829 66.9934L44.8137 67.052L44.7647 67.3117L44.7345 67.4307L44.7159 67.4904L44.6702 67.6128L44.6008 67.7808L44.5709 67.8782L44.5555 67.9855L44.5478 68.1409L44.5428 69.0793L44.5492 69.1206L44.5716 69.1666L44.627 69.2498C45.3048 70.2034 46.4199 70.7337 47.4258 70.5703L47.5961 70.5373L47.7852 70.4892L48.023 70.4187L48.1696 70.3727C48.4715 70.2771 48.5929 70.2172 48.6627 70.1316C48.6776 70.1134 48.6926 70.091 48.711 70.0583L48.7905 69.901L49.1903 69.0666L49.273 68.8816L49.3272 68.737C49.3346 68.7144 49.3414 68.692 49.3478 68.6693C49.4385 68.3458 49.4096 67.9796 49.2699 67.6784L49.2034 67.5499L49.1033 67.3833C48.9169 67.0839 48.7175 66.7915 48.5066 66.5077C48.1921 66.0861 47.9652 65.871 47.7272 65.787Z" fill="#FF957A"/>
<path fill-rule="evenodd" clip-rule="evenodd" d="M51.7038 66.8289C51.508 66.948 51.2972 67.0855 51.2213 67.3136C51.1904 67.4072 51.1854 67.5085 51.1576 67.6033C51.1321 67.6907 51.0876 67.7703 51.0615 67.8575C51.0272 67.9716 51.0253 68.0939 51.0239 68.2141C51.0222 68.3602 51.021 68.5065 51.0201 68.6526C51.0197 68.7274 51.0195 68.8035 51.0406 68.8744C51.0609 68.9415 51.0991 69.0002 51.139 69.0563C51.6288 69.7454 52.4585 70.1662 53.2553 70.0367C53.4325 70.0079 53.6053 69.9539 53.7772 69.8994C53.9507 69.8444 54.1337 69.7825 54.253 69.6362C54.3053 69.5725 54.342 69.496 54.3784 69.4203C54.4499 69.2719 54.5209 69.1234 54.5924 68.9746C54.6536 68.8469 54.7154 68.7181 54.7541 68.5806C54.8339 68.296 54.8088 67.9788 54.6856 67.7129C54.6492 67.6344 54.6047 67.5605 54.5593 67.4878C54.435 67.2881 54.3028 67.0943 54.1634 66.9068C53.9837 66.6659 53.7787 66.4257 53.5062 66.3295C53.1316 66.1974 52.7304 66.3662 52.3388 66.4149" fill="#FFD7C6"/>
<path fill-rule="evenodd" clip-rule="evenodd" d="M45.404 73.5699H48.86V77.8899H44.54L45.404 73.5699Z" fill="#FF957A"/>
<path fill-rule="evenodd" clip-rule="evenodd" d="M51.29 73.5699H55.61L54.746 77.8899H51.29V73.5699Z" fill="#FFD7C6"/>
<path fill-rule="evenodd" clip-rule="evenodd" d="M46.3824 76.6095C46.1835 76.6095 46.0223 76.7753 46.0223 76.9797C46.0223 77.1842 46.1835 77.35 46.3824 77.35H47.3606C47.7727 77.35 48.0723 77.1388 48.0486 76.7452C48.0348 76.516 47.9011 76.2893 47.6857 76.0506C47.4093 75.7444 47.042 75.4661 46.723 75.3346L46.7606 75.293C46.9091 75.1388 47 75.1062 47.0532 75.1491L47.0714 75.1686C47.19 75.3328 47.4155 75.367 47.5752 75.2451C47.7349 75.1233 47.7683 74.8913 47.6497 74.7272C47.2687 74.1995 46.6829 74.3212 46.2488 74.772C46.0867 74.9404 45.9613 75.1417 45.9125 75.3276C45.8237 75.6659 45.9999 75.9954 46.3824 75.9954C46.4894 75.9954 46.8991 76.2678 47.1577 76.5543L47.2054 76.6095H46.3824Z" fill="#FEFEFE"/>
<path fill-rule="evenodd" clip-rule="evenodd" d="M51.5681 77.0145L52.3184 74.0133L52.9901 75.803L54.2601 74.11V77.08H53.7201L53.7191 75.731L52.8303 76.9163L52.4211 75.826L52.092 77.1455L51.5681 77.0145Z" fill="#FF957A"/>
<path d="M119 42H40V91H119V42Z" fill="#FEFEFE" fill-opacity="0.5"/>
<path fill-rule="evenodd" clip-rule="evenodd" d="M86.142 50.4875C89.7678 45.8085 93.9755 43.6897 99.079 44.5062C99.3517 44.5498 99.5374 44.8063 99.4938 45.0789C99.4501 45.3516 99.1937 45.5373 98.921 45.4937C94.2172 44.7411 90.3517 46.6876 86.9324 51.1C85.8193 52.5365 84.7914 54.1555 83.7736 56.0696L83.3668 56.8513C83.028 57.5162 82.6891 58.2156 82.3475 58.9536L81.9361 59.8581C81.8672 60.012 81.7982 60.1676 81.729 60.3247L81.3115 61.2878C81.2416 61.4517 81.1713 61.6173 81.1009 61.7847L80.675 62.81L80.2422 63.8789L79.8013 64.9928L79.3514 66.1534L76.1816 74.5847L75.8198 75.5161L75.4652 76.4103L75.1171 77.268L74.775 78.0898L74.4384 78.8763L74.1066 79.628L73.7791 80.3457L73.4552 81.0299L73.1344 81.6811C73.028 81.8928 72.9219 82.099 72.8162 82.3L72.4999 82.8873C71.0277 85.5547 69.6002 87.2061 67.953 88.1165C64.4221 90.0682 60.3785 87.9824 55.3778 81.3564L54.857 80.6548C54.7696 80.5351 54.682 80.4141 54.594 80.2918C54.4329 80.0675 54.484 79.7551 54.7082 79.5939C54.9325 79.4328 55.2449 79.4839 55.406 79.7081C56.7039 81.5138 57.9193 83 59.0618 84.184L59.515 84.6415C62.66 87.7321 65.2428 88.4719 67.4693 87.2413C68.7123 86.5543 69.8515 85.336 71.016 83.4426L71.3204 82.9333C71.5747 82.4959 71.8307 82.026 72.0898 81.5222L72.4023 80.9012L72.7182 80.247L73.038 79.5591L73.3623 78.8368L73.6915 78.0797L74.0263 77.2871L74.367 76.4585L74.7142 75.5933L75.4532 73.6882L78.1881 66.3961L78.6484 65.1974C78.7243 65.0017 78.7997 64.8079 78.8749 64.6161L79.3212 63.4886L79.7596 62.4063L80.1912 61.3677C80.2626 61.1981 80.3338 61.0303 80.4048 60.8643L80.8282 59.888C82.5836 55.904 84.2341 52.9496 86.142 50.4875Z" fill="#FFCD7C"/>
<path fill-rule="evenodd" clip-rule="evenodd" d="M48.9441 79.6739L47.1584 68.9509C47.12 68.7201 47.2759 68.5019 47.5066 68.4635C47.6113 68.4461 47.7187 68.4686 47.8075 68.5265L55.5308 73.563C55.708 73.6786 55.7728 73.9072 55.6825 74.0985L54.4801 76.647C55.1663 77.3119 55.673 77.8609 56.0001 78.2941C56.3271 78.7273 56.6604 79.139 57.0001 79.5294L54.2001 82C53.7926 81.497 53.4593 81.0166 53.2001 80.5588C52.9408 80.1009 52.5408 79.4833 52.0001 78.7058L49.5578 79.9799C49.3504 80.0881 49.0946 80.0076 48.9864 79.8003C48.9657 79.7606 48.9515 79.718 48.9441 79.6739Z" fill="#FD957D"/>
<path fill-rule="evenodd" clip-rule="evenodd" d="M86.313 80.7995C81.3204 81.2895 75.6566 81.1075 71.6135 77.6239C67.5705 74.1398 64.4992 69.1699 65.068 67.0463C65.6372 64.9223 64.671 57.9735 70.4188 55.0963C76.1667 52.2191 81.0222 50.3577 84.6954 51.2063C95.4087 53.6816 96.3162 66.8558 93.8839 73.2718C92.3106 77.4224 88.1314 80.621 86.313 80.7995Z" fill="#7D4D99"/>
<path fill-rule="evenodd" clip-rule="evenodd" d="M77.1445 59.2922C77.6521 59.0511 80.7122 61.2161 81.634 61.7551C82.5559 62.2942 82.6263 62.3024 84.442 63.2985C86.2576 64.2945 86.7832 64.4262 87.1237 64.7668C87.4642 65.1074 86.103 65.7134 85.199 66.5519C84.295 67.3903 84.0366 67.6299 83.3909 68.2287C82.7453 68.8276 83.0064 68.6778 82.0996 69.4264C81.1928 70.1751 78.4219 73.6329 78.093 73.1423C77.7641 72.6517 77.9685 71.3235 77.9138 70.5257C77.8592 69.7278 77.882 70.0604 77.8045 68.9299C77.7271 67.7994 77.6535 68.4453 77.6497 66.669C77.6458 64.8926 77.6726 64.7177 77.6112 63.8211C77.5497 62.9244 77.4603 62.4058 77.2877 61.384C77.1152 60.3622 76.6368 59.5333 77.1445 59.2922Z" fill="#FEFEFE"/>
</svg>
