<svg width="160" height="140" viewBox="0 0 160 140" fill="none" xmlns="http://www.w3.org/2000/svg">
<path fill-rule="evenodd" clip-rule="evenodd" d="M13.7346 24H51H71H118L132 25L146.834 24.1759C148.488 24.084 149.903 25.3506 149.995 27.0049C149.998 27.0603 150 27.1158 150 27.1713V38V46L149 92L150 106V114.226C150 115.33 149.105 116.226 148 116.226H137L109 115L68 116.226H35H12C10.8954 116.226 10 115.33 10 114.226V110V82V51V38L11.7547 25.7172C11.8954 24.7319 12.7393 24 13.7346 24Z" fill="#F0F0EF"/>
<path fill-rule="evenodd" clip-rule="evenodd" d="M52.7973 66.9358L52.7844 66.9468C51.5123 68.0258 50.9386 68.2932 50.0726 67.9699C49.6928 67.8277 49.4087 67.638 48.7903 67.1526L48.7832 67.1471C48.2053 66.6935 47.9327 66.5029 47.5481 66.3206C46.3244 65.7405 45.3833 65.9662 44.1119 66.8477C44.0285 66.9055 43.9421 66.9668 43.8365 67.0427C43.7817 67.0821 43.5937 67.2179 43.564 67.2393C43.2135 67.4919 42.9897 67.6441 42.7506 67.7861C41.8132 68.3429 41.2173 68.2196 40.2414 67.4839C40.1387 67.4064 40.0362 67.3267 39.8228 67.16C39.0804 66.5826 38.6222 66.3033 38.0144 66.1409C36.9051 65.8445 36.2099 66.1627 34.8984 67.21L34.8613 67.2396C33.775 68.1069 33.2643 68.3423 32.5032 68.1501C32.0188 68.0277 31.6517 67.8106 30.8728 67.2431L30.8055 67.1941C29.623 66.3332 28.9753 66.0358 28 66.1424L28.08 66.9192C28.8142 66.8389 29.3279 67.0747 30.368 67.832L30.4351 67.8809C31.291 68.5045 31.7149 68.7552 32.3227 68.9087C33.3843 69.1769 34.0665 68.8624 35.3257 67.8571L35.3628 67.8274C36.4988 66.9203 37.0194 66.682 37.8241 66.8971C38.3083 67.0264 38.6985 67.2642 39.3661 67.7834C39.578 67.949 39.6857 68.0328 39.7937 68.1143C40.9872 69.014 41.8875 69.2004 43.1292 68.4628C43.3921 68.3067 43.6311 68.1441 43.9985 67.8795C44.0289 67.8575 44.2165 67.722 44.2703 67.6833C44.3727 67.6097 44.4558 67.5508 44.5352 67.4957C45.6098 66.7507 46.295 66.5864 47.2312 67.0302C47.5483 67.1805 47.7902 67.3497 48.3238 67.7685L48.3309 67.774C49.01 68.307 49.3378 68.5259 49.814 68.7041C51.0243 69.1561 51.7974 68.7958 53.2663 67.5498L53.2792 67.5388C54.411 66.5788 54.1798 65.7632 52.7973 66.9358ZM65.9347 62.1016C65.8801 62.0621 65.8801 62.0621 65.8252 62.0222C64.9292 61.3719 64.4643 61.1178 63.7804 61.0277C62.8472 60.9048 62.2385 61.1875 61.3407 61.9431C61.2921 61.984 61.1177 62.1319 61.1276 62.1236C60.7573 62.4371 60.5373 62.6033 60.2805 62.7479C59.3031 63.2981 58.5588 63.121 57.3161 62.2611C57.2462 62.2127 57.173 62.1613 57.0855 62.0992C57.0303 62.06 56.9689 62.0162 56.851 61.9321C56.7528 61.8622 56.6804 61.8109 56.6086 61.7606C55.2235 60.7922 53.8451 60.9249 52.4803 62.0389L52.4676 62.0493C51.2117 63.0745 50.6454 63.3285 49.7905 63.0213C49.4155 62.8863 49.1351 62.706 48.5245 62.2449L48.5176 62.2396C47.947 61.8087 47.6779 61.6276 47.2982 61.4544C46.0902 60.9033 45.1611 61.1177 43.906 61.9552C43.8236 62.0101 43.7383 62.0683 43.634 62.1405C43.58 62.1779 43.3944 62.3069 43.3651 62.3273C43.019 62.5672 42.7981 62.7118 42.562 62.8467C41.6366 63.3757 41.0483 63.2586 40.085 62.5596C39.9835 62.486 39.8823 62.4103 39.6717 62.2519C38.9388 61.7033 38.4865 61.438 37.8864 61.2837C36.7913 61.0021 36.105 61.3044 34.8102 62.2994L34.7736 62.3275C33.7012 63.1515 33.1971 63.3752 32.4456 63.1925C31.9674 63.0763 31.6051 62.87 30.8361 62.3308L30.7696 62.2843C29.6023 61.4664 28.9628 61.1838 28 61.2851L28.079 62.0231C28.8038 61.9468 29.3109 62.1709 30.3377 62.8903L30.4039 62.9368C31.249 63.5292 31.6674 63.7675 32.2674 63.9133C33.3154 64.168 33.989 63.8692 35.2321 62.9142L35.2687 62.886C36.3902 62.0241 36.9041 61.7978 37.6985 62.0021C38.1765 62.1249 38.5618 62.3509 39.2208 62.8442C39.43 63.0015 39.5363 63.0811 39.643 63.1585C40.8212 64.0133 41.71 64.1904 42.9358 63.4896C43.1953 63.3413 43.4313 63.1869 43.794 62.9354C43.824 62.9146 44.0092 62.7858 44.0623 62.7491C44.1634 62.6791 44.2454 62.6232 44.3238 62.5709C45.3847 61.863 46.0611 61.7069 46.9854 62.1286C47.2984 62.2714 47.5372 62.4321 48.0641 62.83L48.071 62.8352C48.7415 63.3416 49.065 63.5496 49.5352 63.7189C50.73 64.1483 51.4932 63.806 52.9433 62.6222L52.956 62.6118C54.0734 61.6997 55.0837 61.6025 56.177 62.3669C56.2467 62.4157 56.3176 62.4659 56.4142 62.5348C56.5317 62.6186 56.5939 62.6629 56.6499 62.7026C56.7396 62.7663 56.8152 62.8194 56.8878 62.8697C58.3414 63.8755 59.362 64.1184 60.65 63.3933C60.9594 63.219 61.2094 63.0302 61.6136 62.688C61.6049 62.6953 61.7778 62.5486 61.825 62.5088C62.5766 61.8763 63.0103 61.6749 63.6818 61.7634C64.2002 61.8316 64.5862 62.0426 65.3831 62.621C65.438 62.6609 65.438 62.6609 65.4932 62.7009C65.7345 62.8756 66.164 62.2677 65.9347 62.1016ZM61.1081 57.8639C61.0598 57.9063 60.8867 58.06 60.8965 58.0513C60.5288 58.3769 60.3104 58.5495 60.0553 58.6997C59.0848 59.2711 58.3457 59.0871 57.1116 58.1941C57.0422 58.1439 56.9695 58.0905 56.8826 58.026C56.8278 57.9853 56.7669 57.9398 56.6497 57.8525C56.5522 57.7798 56.4804 57.7266 56.409 57.6744C55.0336 56.6687 53.6649 56.8064 52.3096 57.9634L52.2969 57.9742C51.0498 59.0389 50.4874 59.3027 49.6385 58.9836C49.2661 58.8434 48.9877 58.6562 48.3813 58.1773L48.3744 58.1718C47.8079 57.7244 47.5407 57.5363 47.1636 57.3564C45.964 56.784 45.0414 57.0067 43.795 57.8764C43.7132 57.9335 43.6285 57.9939 43.525 58.0689C43.4713 58.1077 43.287 58.2417 43.2579 58.2628C42.9142 58.512 42.6948 58.6622 42.4604 58.8023C41.5415 59.3517 40.9573 59.23 40.0007 58.5041C39.8999 58.4277 39.7994 58.3491 39.5903 58.1846C38.8625 57.6149 38.4133 57.3393 37.8174 57.1791C36.73 56.8866 36.0484 57.2006 34.7627 58.2339L34.7264 58.2631C33.6614 59.1188 33.1608 59.3511 32.4146 59.1614C31.9397 59.0407 31.5799 58.8265 30.8163 58.2666L30.7503 58.2182C29.5911 57.3688 28.9561 57.0754 28 57.1806L28.0784 57.947C28.7982 57.8678 29.3017 58.1005 30.3214 58.8476L30.3872 58.8958C31.2263 59.5111 31.6418 59.7585 32.2377 59.9099C33.2784 60.1745 33.9472 59.8642 35.1816 58.8723L35.218 58.8431C36.3316 57.948 36.842 57.713 37.6309 57.9252C38.1056 58.0527 38.4881 58.2874 39.1425 58.7997C39.3502 58.9631 39.4558 59.0457 39.5618 59.1261C40.7318 60.0139 41.6144 60.1977 42.8316 59.47C43.0893 59.3159 43.3237 59.1556 43.6838 58.8944C43.7137 58.8728 43.8975 58.7391 43.9503 58.7009C44.0507 58.6282 44.1321 58.5701 44.2099 58.5158C45.2634 57.7808 45.9351 57.6186 46.8529 58.0565C47.1638 58.2048 47.4009 58.3717 47.9241 58.7849L47.931 58.7904C48.5968 59.3162 48.9181 59.5322 49.385 59.7081C50.5715 60.154 51.3293 59.7985 52.7693 58.5692L52.7819 58.5584C53.8916 57.6112 54.8948 57.5102 55.9805 58.3041C56.0497 58.3547 56.1201 58.4069 56.216 58.4783C56.3327 58.5654 56.3944 58.6114 56.45 58.6527C56.5391 58.7188 56.6142 58.7739 56.6863 58.8261C58.1298 59.8707 59.1432 60.1229 60.4223 59.3699C60.7295 59.189 60.9777 58.9928 61.3791 58.6374C61.3704 58.6451 61.5422 58.4927 61.589 58.4514C62.3354 57.7946 62 57.0792 61.1081 57.8639Z" fill="#FF957A" fill-opacity="0.5"/>
<path fill-rule="evenodd" clip-rule="evenodd" d="M31.4659 77C32.1111 77 32.7563 77 33.4014 77C34.1875 77 35.7897 77 38.208 77H46.5104H53.1764C54.0802 77 54.8128 77.7326 54.8128 78.6364L55.2498 81.0909C55.2498 82.1453 54.395 83 53.3407 83C52.6661 83 51.9916 83 51.3171 83C48.1121 83 44.0505 83 42.1408 83C40.7281 83 39.8923 83 37.7711 83C36.5871 83 33.7248 83 31.0463 83C30.1618 83 29.4318 82.3079 29.3848 81.4246L29.2498 78.8909C29.4234 77.8016 30.3629 77 31.4659 77Z" fill="#FF957A" fill-opacity="0.5"/>
<path fill-rule="evenodd" clip-rule="evenodd" d="M46.2651 48.5105C44.7583 50.6751 40.7536 50.3713 39.0608 48.3045L38.9907 48.2161C37.8341 46.7114 35.3318 46.7388 33.5463 48.607L33.4576 48.7019C32.669 49.566 31.844 49.937 30.9583 49.8283C30.4404 49.7647 30.064 49.6044 29.4696 49.2267L29.2629 49.0926L28.8195 48.7949L28.639 48.6779C28.2104 48.4066 27.9454 48.2934 27.7073 48.2803L27.66 48.279C27.2955 48.279 27 48.0229 27 47.707C27 47.3911 27.2955 47.135 27.66 47.135C28.3235 47.135 28.8158 47.3529 29.6066 47.8764L30.026 48.1578L30.1909 48.2646L30.3455 48.3603C30.3704 48.3753 30.395 48.3899 30.4192 48.404L30.56 48.4828C31.2884 48.8732 31.6708 48.7785 32.3011 48.122L32.4223 47.9923C34.7123 45.4832 38.2925 45.3748 40.0193 47.4936L40.0892 47.5819C41.2237 49.0578 44.0528 49.3191 45.0814 47.9922L45.1348 47.9196C46.6666 45.719 51.2982 45.5743 52.4543 47.6504C52.7474 48.1768 53.6705 48.6037 54.7425 48.7137C55.7055 48.8125 56.4214 48.6148 56.508 48.3659C56.8156 47.4822 58.2325 46.7262 59.8251 46.4715C61.5802 46.1908 63.2177 46.5587 64.197 47.6625L64.2771 47.7561C64.89 48.5006 66.0202 48.7275 67.396 48.471C68.5227 48.2608 69.5991 47.7206 69.7275 47.444C69.8635 47.1509 70.2479 47.0089 70.5861 47.1268C70.9243 47.2446 71.0882 47.5778 70.9522 47.8709C70.6194 48.588 69.1861 49.3073 67.6737 49.5893C65.8834 49.9232 64.2599 49.6155 63.2806 48.5118L63.2026 48.4206C62.5729 47.6557 61.4105 47.3812 60.0646 47.5964C58.906 47.7817 57.904 48.3164 57.7718 48.6963C57.1152 50.5827 52.3492 50.0937 51.2655 48.1476C50.6059 46.9631 47.4026 47.0416 46.3219 48.4333L46.2651 48.5105Z" fill="#FF957A" fill-opacity="0.5"/>
<path fill-rule="evenodd" clip-rule="evenodd" d="M91.8246 51H103.896C115.202 51 120.855 51 120.855 51H137.525L138.675 53.4173C138.675 53.4173 139.25 68.7266 139.25 69.3309C139.25 69.7338 139.058 72.8897 138.675 78.7986C135.609 78.7986 133.214 78.7986 131.489 78.7986C128.902 78.7986 116.543 78.5971 115.393 78.7986C114.244 79 104.759 78.5971 102.172 78.7986C99.5851 79 93.2617 79 92.112 79C90.9623 79 91.8246 76.1799 91.8246 76.1799C91.8246 76.1799 91.633 72.8897 91.2498 66.3093C91.2498 62.6834 91.2498 60.6019 91.2498 60.0648C91.2498 59.259 91.2498 53.8201 91.2498 53.8201C91.2498 53.8201 91.4414 52.8801 91.8246 51Z" fill="#FF957A" fill-opacity="0.5"/>
<path fill-rule="evenodd" clip-rule="evenodd" d="M117.565 60.0688C121.136 60.8939 121.439 65.2853 120.628 67.4239C120.104 68.8075 118.71 69.8737 118.104 69.9332C116.44 70.0965 114.552 70.0358 113.205 68.8746C111.857 67.7133 110.833 66.0566 111.023 65.3488C111.212 64.6408 110.89 62.3245 112.806 61.3654C114.722 60.4064 116.341 59.7859 117.565 60.0688ZM115.218 62.7583L115.173 62.7641C115.004 62.8444 115.163 63.1207 115.221 63.4613C115.278 63.8019 115.308 63.9748 115.329 64.2737C115.339 64.4231 115.342 64.5124 115.342 64.6384L115.342 64.8133C115.342 64.8474 115.342 64.8846 115.342 64.9256L115.341 65.223C115.343 65.8151 115.367 65.5998 115.393 65.9766C115.419 66.3535 115.411 66.2426 115.429 66.5086C115.448 66.7745 115.38 67.2173 115.489 67.3808C115.599 67.5443 116.522 66.3917 116.825 66.1421C116.925 66.059 116.983 66.009 117.023 65.9721L117.087 65.9094C117.124 65.8711 117.16 65.8316 117.255 65.7429C117.47 65.5433 117.557 65.4634 117.858 65.184C118.159 64.9045 118.613 64.7025 118.499 64.5889C118.386 64.4754 118.211 64.4315 117.606 64.0995C117.252 63.9058 117.097 63.8242 116.968 63.7541L116.86 63.6945C116.805 63.6638 116.746 63.63 116.67 63.585C116.362 63.4054 115.342 62.6837 115.173 62.7641L115.218 62.7583Z" fill="#FEFEFE"/>
<path fill-rule="evenodd" clip-rule="evenodd" d="M110.585 97H117.627C124.222 97 127.519 97 127.519 97H137.244L137.914 97.518C137.914 97.518 138.25 100.799 138.25 100.928C138.25 101.014 138.138 101.691 137.914 102.957C136.126 102.957 134.729 102.957 133.723 102.957C132.214 102.957 125.004 102.914 124.334 102.957C123.663 103 118.13 102.914 116.621 102.957C115.112 103 111.423 103 110.753 103C110.082 103 110.585 102.396 110.585 102.396C110.585 102.396 110.473 101.691 110.25 100.281C110.25 99.5036 110.25 99.0576 110.25 98.9424C110.25 98.7698 110.25 97.6043 110.25 97.6043C110.25 97.6043 110.362 97.4029 110.585 97Z" fill="#FF957A" fill-opacity="0.5"/>
<path fill-rule="evenodd" clip-rule="evenodd" d="M69.5851 97H76.627C83.2218 97 86.5192 97 86.5192 97H96.2438L96.9144 97.518C96.9144 97.518 97.2498 100.799 97.2498 100.928C97.2498 101.014 97.138 101.691 96.9144 102.957C95.126 102.957 93.7288 102.957 92.7228 102.957C91.2138 102.957 84.0042 102.914 83.3336 102.957C82.6629 103 77.13 102.914 75.621 102.957C74.112 103 70.4234 103 69.7528 103C69.0821 103 69.5851 102.396 69.5851 102.396C69.5851 102.396 69.4733 101.691 69.2498 100.281C69.2498 99.5036 69.2498 99.0576 69.2498 98.9424C69.2498 98.7698 69.2498 97.6043 69.2498 97.6043C69.2498 97.6043 69.3615 97.4029 69.5851 97Z" fill="#FF957A" fill-opacity="0.5"/>
<path fill-rule="evenodd" clip-rule="evenodd" d="M28.5851 97H35.627C42.2218 97 45.5192 97 45.5192 97H55.2438L55.9144 97.518C55.9144 97.518 56.2498 100.799 56.2498 100.928C56.2498 101.014 56.138 101.691 55.9144 102.957C54.126 102.957 52.7288 102.957 51.7228 102.957C50.2138 102.957 43.0042 102.914 42.3336 102.957C41.6629 103 36.13 102.914 34.621 102.957C33.112 103 29.4234 103 28.7527 103C28.0821 103 28.5851 102.396 28.5851 102.396C28.5851 102.396 28.4733 101.691 28.2498 100.281C28.2498 99.5036 28.2498 99.0576 28.2498 98.9424C28.2498 98.7698 28.2498 97.6043 28.2498 97.6043C28.2498 97.6043 28.3615 97.4029 28.5851 97Z" fill="#FF957A" fill-opacity="0.5"/>
<path opacity="0.7" fill-rule="evenodd" clip-rule="evenodd" d="M52.6221 99.7609C48.1577 100.38 43.438 97.6708 37.76 96.3482C36.3429 96.0166 34.8665 95.7714 33.3883 95.5401L32.4031 95.3871C28.3025 94.7518 24.2863 94.099 21.5858 91.8733C17.6971 88.6684 16.5499 82.2076 18.6251 77.1897C20.6969 72.1625 25.9945 68.5874 30.8089 64.9459C35.6233 61.3045 39.9484 57.6097 44.5764 57.1075C49.201 56.596 54.1286 59.2771 58.0638 62.7832C62.012 66.2949 64.9547 70.6261 66.0279 75.5081C67.1012 80.3901 66.2858 85.8305 63.7813 90.5161C61.2768 95.2017 57.0866 99.1418 52.6221 99.7609ZM50.5062 95.929C54.0767 95.4309 57.431 92.2846 59.4381 88.5455C61.4452 84.8064 62.1023 80.4671 61.2487 76.5749C60.3951 72.6827 58.0461 69.2316 54.8923 66.4351C51.7489 63.6429 47.8112 61.5097 44.1127 61.9222C40.4115 62.3273 36.9496 65.278 33.0964 68.1868C29.2433 71.0955 25.0037 73.9518 23.3424 77.9629C21.6783 81.9666 22.5895 87.1177 25.696 89.6697C28.8025 92.2216 34.0938 92.1701 38.6252 93.2222C43.1642 94.2714 46.9357 96.4272 50.5062 95.929Z" fill="#FDB00B"/>
<path opacity="0.8" fill-rule="evenodd" clip-rule="evenodd" d="M50.5058 95.9285C46.9355 96.4266 43.1642 94.2709 38.6254 93.2217C34.0942 92.1696 28.8031 92.2212 25.6967 89.6694C22.5904 87.1175 21.6791 81.9666 23.3432 77.963C25.0045 73.9521 29.2438 71.0959 33.0968 68.1873C36.9498 65.2787 40.4116 62.328 44.1127 61.923C47.811 61.5105 51.7485 63.6436 54.8918 66.4357C58.0454 69.2321 60.3944 72.683 61.2479 76.5751C62.1015 80.4671 61.4444 84.8063 59.4374 88.5453C57.4304 92.2842 54.0762 95.4303 50.5058 95.9285ZM48.0935 91.5471C50.65 91.1842 53.0583 88.9416 54.504 86.2815C55.9496 83.6215 56.4305 80.5387 55.8292 77.7774C55.2279 75.016 53.5552 72.5717 51.3051 70.5943C49.0623 68.6199 46.2494 67.1155 43.6015 67.4179C40.9516 67.7151 38.4668 69.8192 35.702 71.8944C32.9372 73.9697 29.8961 76.0087 28.6973 78.861C27.4964 81.708 28.1359 85.3631 30.3529 87.167C32.5698 88.971 36.3568 88.9206 39.5972 89.656C42.8431 90.3891 45.5369 91.9101 48.0935 91.5471Z" fill="#F29040"/>
<path opacity="0.85" fill-rule="evenodd" clip-rule="evenodd" d="M48.0927 91.5459C45.5364 91.9088 42.843 90.388 39.5975 89.6549C36.3575 88.9197 32.571 88.97 30.3543 87.1663C28.1377 85.3626 27.4982 81.7079 28.6989 78.8612C29.8976 76.0092 32.9384 73.9704 35.7028 71.8954C38.4672 69.8204 40.9517 67.7166 43.6013 67.4194C46.2488 67.117 49.0614 68.6213 51.3038 70.5954C53.5537 72.5727 55.2262 75.0166 55.8274 77.7777C56.4287 80.5387 55.9478 83.6211 54.5023 86.2809C53.0569 88.9406 50.6489 91.183 48.0927 91.5459ZM46.5701 88.8137C48.4722 88.5433 50.2645 86.8753 51.3406 84.897C52.4167 82.9188 52.7751 80.6264 52.3283 78.5732C51.8814 76.5201 50.6374 74.7029 48.9636 73.233C47.2953 71.7653 45.2028 70.6472 43.2326 70.8726C41.261 71.0942 39.4118 72.6592 37.3544 74.2029C35.297 75.7466 33.0339 77.2634 32.1414 79.3845C31.2474 81.5018 31.7225 84.2195 33.3716 85.5604C34.496 86.4747 36.1636 86.7478 37.8751 87.0022L38.5608 87.1044C39.1323 87.1912 39.7012 87.2851 40.2491 87.4092C42.6639 87.9538 44.6679 89.0842 46.5701 88.8137Z" fill="#C85E76"/>
<path opacity="0.9" fill-rule="evenodd" clip-rule="evenodd" d="M46.5701 88.8137C44.668 89.0841 42.664 87.9537 40.2492 87.4092C39.7013 87.2851 39.1324 87.1911 38.561 87.1043L37.8752 87.0021C36.1638 86.7478 34.4962 86.4746 33.3718 85.5604C31.7228 84.2195 31.2477 81.5018 32.1416 79.3846C33.0342 77.2634 35.2972 75.7466 37.3546 74.203C39.412 72.6593 41.2612 71.0943 43.2327 70.8728C45.2029 70.6473 47.2954 71.7654 48.9636 73.233C50.6374 74.703 51.8814 76.5201 52.3283 78.5733C52.7751 80.6264 52.4167 82.9188 51.3406 84.897C50.2646 86.8753 48.4723 88.5433 46.5701 88.8137ZM45.1958 86.3564C46.5039 86.1714 47.7354 85.0228 48.4741 83.6598C49.2128 82.2968 49.4577 80.7168 49.1489 79.3011C48.8402 77.8853 47.9833 76.6317 46.8311 75.6171C45.6827 74.6041 44.2427 73.8318 42.8879 73.9858C41.532 74.137 40.2613 75.2146 38.8473 76.2772C37.4334 77.3399 35.878 78.3839 35.2656 79.8455C34.6523 81.3044 34.9809 83.1783 36.1161 84.1039C37.2512 85.0295 39.189 85.0052 40.8474 85.3835C42.5087 85.7606 43.8877 86.5414 45.1958 86.3564Z" fill="#994688"/>
<path opacity="0.95" fill-rule="evenodd" clip-rule="evenodd" d="M40.8474 85.3837C39.1889 85.0054 37.251 85.0297 36.1159 84.104C34.9807 83.1784 34.652 81.3044 35.2654 79.8455C35.8778 78.3838 37.4333 77.3398 38.8473 76.2771C40.2613 75.2144 41.532 74.1368 42.8879 73.9856C44.2428 73.8316 45.6828 74.604 46.8313 75.617C47.9835 76.6316 48.8404 77.8853 49.1492 79.301C49.458 80.7168 49.2131 82.2969 48.4743 83.6599C47.7356 85.0229 46.5041 86.1716 45.1959 86.3566C43.8878 86.5416 42.5087 85.7608 40.8474 85.3837Z" fill="#43155D" fill-opacity="0.9"/>
<path opacity="0.7" fill-rule="evenodd" clip-rule="evenodd" d="M105.538 30.1809C109.025 31.0459 112.377 34.6966 115.87 38.5451L116.548 39.2918C118.927 41.9089 121.378 44.54 123.988 46.3809C130.684 51.1144 131.638 26.5809 142.888 59.4309C154.138 92.2809 115.888 92.2809 104.188 99.9309C92.4876 107.581 80.1422 93.1687 76.7376 86.4309C73.3189 79.6788 71.277 70.5598 72.2376 63.4809C73.1983 56.4019 77.5423 46.8276 83.0376 41.8809C88.533 36.9341 99.4631 28.6741 105.538 30.1809ZM105.112 41.7378C100.252 40.5367 94.3982 42.9841 90.0019 46.9272C85.6056 50.8703 82.6672 56.3203 81.8987 61.963C81.1302 67.6056 82.509 73.4409 85.244 78.823C87.9676 84.1937 92.0362 89.0999 97.0202 90.4822C102.004 91.8759 107.904 89.7457 114.289 87.8762C114.927 87.6892 115.571 87.505 116.216 87.3203L117.183 87.0426C122.67 85.4623 128.146 83.7359 131.614 79.9221C135.694 75.4464 136.994 68.0929 134.202 63.062C132.318 59.6663 128.575 57.3339 124.693 55.0162L123.829 54.501C122.243 53.5552 120.656 52.599 119.183 51.5614C113.814 47.7883 109.972 42.9388 105.112 41.7378Z" fill="#FDB00B"/>
<path opacity="0.8" fill-rule="evenodd" clip-rule="evenodd" d="M105.112 41.7378C109.972 42.9389 113.814 47.7884 119.183 51.5615C120.388 52.4104 121.67 53.2049 122.965 53.9837L123.829 54.501C128.01 56.9943 132.179 59.4148 134.202 63.0621C136.994 68.0929 135.694 75.4465 131.614 79.9221C128.146 83.736 122.67 85.4624 117.184 87.0426L116.216 87.3203C115.571 87.505 114.928 87.6893 114.289 87.8762C107.904 89.7458 102.004 91.8759 97.0203 90.4823C92.0363 89.0999 87.9677 84.1937 85.2441 78.823C82.5091 73.441 81.1303 67.6057 81.8988 61.963C82.6673 56.3204 85.6057 50.8703 90.002 46.9273C94.3983 42.9842 100.253 40.5368 105.112 41.7378ZM106.125 48.8485C102.642 47.9969 98.447 49.7323 95.2963 52.5283C92.1456 55.3243 90.0398 59.1889 89.489 63.19C88.9382 67.1912 89.9264 71.3289 91.8864 75.1453C93.8384 78.9537 96.7542 82.4326 100.326 83.4128C103.898 84.401 108.126 82.8905 112.702 81.5648C112.988 81.482 113.275 81.3999 113.563 81.318L114.429 81.0724C114.574 81.0314 114.719 80.9903 114.863 80.949L115.73 80.6991C119.334 79.6455 122.834 78.4103 125.118 75.9247C128.042 72.751 128.974 67.5367 126.973 63.9694C125.535 61.4054 122.587 59.6964 119.617 57.9445L118.842 57.4859C117.941 56.9484 117.049 56.3997 116.209 55.8144C112.362 53.1389 109.608 49.7002 106.125 48.8485Z" fill="#F29040"/>
<path opacity="0.85" fill-rule="evenodd" clip-rule="evenodd" d="M106.125 48.8485C109.608 49.7001 112.362 53.1389 116.209 55.8144C117.049 56.3996 117.941 56.9484 118.842 57.4859L119.617 57.9445C122.587 59.6964 125.535 61.4053 126.973 63.9693C128.974 67.5366 128.042 72.751 125.118 75.9246C122.834 78.4103 119.334 79.6454 115.729 80.699L114.863 80.949C114.718 80.9902 114.574 81.0313 114.429 81.0723L113.563 81.3179C113.275 81.3998 112.988 81.4819 112.702 81.5648C108.126 82.8905 103.898 84.401 100.326 83.4127C96.7541 82.4325 93.8383 78.9536 91.8863 75.1453C89.9263 71.3289 88.9381 67.1912 89.4889 63.19C90.0397 59.1888 92.1455 55.3243 95.2962 52.5283C98.4469 49.7323 102.642 47.9968 106.125 48.8485ZM106.781 53.2927C104.189 52.6594 101.067 53.9499 98.7219 56.0289C96.3772 58.108 94.8101 60.9817 94.4002 63.9569C93.9903 66.9321 94.7257 70.0089 96.1843 72.8467C97.637 75.6785 99.8069 78.2654 102.465 78.9943C105.123 79.7291 108.269 78.606 111.675 77.6202C111.927 77.5472 112.181 77.4749 112.435 77.4028L113.2 77.1861C116.132 76.3514 119.062 75.4416 120.915 73.4262C123.091 71.0663 123.784 67.189 122.295 64.5364C120.807 61.8838 117.142 60.4619 114.285 58.4724C111.422 56.483 109.373 53.926 106.781 53.2927Z" fill="#C85E76"/>
<path opacity="0.9" fill-rule="evenodd" clip-rule="evenodd" d="M106.781 53.2927C109.372 53.926 111.422 56.483 114.285 58.4724C117.142 60.4619 120.807 61.8838 122.295 64.5364C123.784 67.189 123.091 71.0663 120.915 73.4262C119.062 75.4416 116.132 76.3514 113.2 77.1861L112.435 77.4028C112.181 77.4749 111.927 77.5472 111.675 77.6202C108.269 78.606 105.123 79.7291 102.465 78.9943C99.8068 78.2654 97.6369 75.6785 96.1843 72.8467C94.7256 70.0089 93.9903 66.9321 94.4002 63.9569C94.81 60.9817 96.3772 58.108 98.7219 56.0289C101.067 53.9499 104.189 52.6594 106.781 53.2927ZM107.377 57.2925C105.595 56.8557 103.448 57.7457 101.836 59.1795C100.224 60.6134 99.1468 62.5952 98.865 64.6471C98.5832 66.699 99.0888 68.8209 100.092 70.778C101.09 72.731 102.582 74.515 104.41 75.0177C106.237 75.5245 108.4 74.7499 110.741 74.0701C113.083 73.3902 115.598 72.8093 117.094 71.1777C118.59 69.5502 119.067 66.8761 118.043 65.0467C117.019 63.2174 114.5 62.2367 112.536 60.8647C110.567 59.4927 109.158 57.7292 107.377 57.2925Z" fill="#994688"/>
<path opacity="0.95" fill-rule="evenodd" clip-rule="evenodd" d="M112.536 60.8648C114.5 62.2368 117.019 63.2174 118.043 65.0468C119.067 66.8762 118.59 69.5502 117.094 71.1777C115.598 72.8093 113.083 73.3903 110.741 74.0701C108.4 74.7499 106.237 75.5245 104.41 75.0178C102.582 74.5151 101.09 72.731 100.092 70.778C99.0888 68.8209 98.5832 66.699 98.865 64.6471C99.1468 62.5953 100.224 60.6134 101.836 59.1796C103.448 57.7457 105.595 56.8558 107.377 57.2925C109.158 57.7293 110.567 59.4927 112.536 60.8648Z" fill="#43155D" fill-opacity="0.9"/>
</svg>
