<svg width="203" height="140" viewBox="0 0 203 140" fill="none" xmlns="http://www.w3.org/2000/svg">
<path fill-rule="evenodd" clip-rule="evenodd" d="M26.2459 22H69.7732H93.2186H148.315L164.727 22.9325L181.83 22.1767C183.918 22.0844 185.705 23.3506 185.822 25.0049C185.826 25.0606 185.828 25.1163 185.828 25.172V35.055V42.5149L184.656 85.4098L185.828 98.4647V106C185.828 107.105 184.697 108 183.303 108H170.588L137.765 106.857L89.7018 108H51.0169H24.2351C22.8406 108 21.7102 107.105 21.7102 106V102.195V76.0848V47.1774V35.055L23.7461 23.7183C23.9232 22.7325 24.9888 22 26.2459 22Z" fill="#F0F0EF"/>
<path fill-rule="evenodd" clip-rule="evenodd" d="M36.338 29.8872H51.8955C66.4653 29.8872 73.7502 29.8872 73.7502 29.8872H95.2344L96.7161 32.9088C96.7161 32.9088 97.4569 52.0455 97.4569 52.8009C97.4569 53.3045 97.2099 57.2493 96.7161 64.6354C92.7649 64.6354 89.6781 64.6354 87.4556 64.6354C84.1219 64.6354 68.1939 64.3836 66.7122 64.6354C65.2306 64.8872 53.0068 64.3836 49.673 64.6354C46.3393 64.8872 38.1901 64.8872 36.7084 64.8872C35.2268 64.8872 36.338 61.362 36.338 61.362C36.338 61.362 36.0911 57.2493 35.5972 49.0239C35.5972 44.4915 35.5972 41.8896 35.5972 41.2181C35.5972 40.2109 35.5972 33.4124 35.5972 33.4124C35.5972 33.4124 35.8441 32.2373 36.338 29.8872Z" fill="#FFD7C6"/>
<path fill-rule="evenodd" clip-rule="evenodd" d="M80.2207 60.8872C75.7893 59.7155 73.2043 59.4226 72.4657 60.0084C71.7271 60.5943 69.5114 60.8872 65.8185 60.8872H58.0635H53.6321V54.7357V47.7054L52.5242 42.4327L46.9849 46.8266L38.1221 43.3114L51.4164 33.6448L60.2792 32.766C62.495 34.5236 64.7107 35.4024 66.9264 35.4024C70.25 35.4024 74.6814 33.6448 74.6814 32.766C74.6814 32.1801 78.005 31.8872 84.6521 31.8872L92.4071 36.2811L90.1914 41.5539L80.2207 39.7963V50.3418V60.8872Z" fill="#FEFEFE" fill-opacity="0.5"/>
<path fill-rule="evenodd" clip-rule="evenodd" d="M59.904 33.27C60.5399 33.7408 61.0605 34.0823 61.8231 34.4724C65.7969 36.5051 70.5291 36.5384 75.6132 33.3122C76.072 33.0211 76.1251 32.5097 75.7318 32.1701C75.3386 31.8304 74.6479 31.7911 74.1891 32.0822C69.9049 34.8008 66.2645 34.7752 63.067 33.1396C62.4356 32.8166 62.0018 32.532 61.4513 32.1245C61.024 31.8081 60.3312 31.8081 59.904 32.1245C59.4767 32.4408 59.4767 32.9537 59.904 33.27Z" fill="#FF957A"/>
<path fill-rule="evenodd" clip-rule="evenodd" d="M73.558 82.479L73.5387 82.4918C71.6369 83.7507 70.7792 84.0627 69.4846 83.6854C68.9168 83.5195 68.4921 83.2982 67.5675 82.7319L67.557 82.7255C66.693 82.1963 66.2855 81.9739 65.7105 81.7612C63.881 81.0844 62.4742 81.3478 60.5734 82.3762C60.4486 82.4437 60.3195 82.5151 60.1616 82.6037C60.0797 82.6496 59.7987 82.8081 59.7543 82.8331C59.2302 83.1278 58.8956 83.3053 58.5382 83.4709C57.1367 84.1206 56.2459 83.9767 54.787 83.1184C54.6334 83.028 54.4802 82.935 54.1612 82.7405C53.0513 82.0669 52.3663 81.741 51.4576 81.5516C49.7992 81.2058 48.7599 81.577 46.7992 82.7989L46.7437 82.8334C45.1197 83.8453 44.3563 84.1199 43.2183 83.8956C42.4941 83.7529 41.9454 83.4996 40.7809 82.8375L40.6803 82.7803C38.9125 81.7759 37.9441 81.429 36.4861 81.5533L36.6057 82.4596C37.7033 82.3659 38.4712 82.6411 40.0262 83.5245L40.1265 83.5816C41.4062 84.3091 42.0398 84.6017 42.9485 84.7807C44.5356 85.0936 45.5556 84.7266 47.438 83.5538L47.4935 83.5192C49.1918 82.4608 49.97 82.1829 51.1731 82.4338C51.897 82.5847 52.4804 82.8622 53.4783 83.4679C53.7951 83.6611 53.9561 83.7588 54.1177 83.8539C55.9019 84.9036 57.2479 85.121 59.1042 84.2605C59.4972 84.0783 59.8546 83.8887 60.4038 83.5799C60.4493 83.5543 60.7297 83.3962 60.8102 83.3511C60.9633 83.2652 61.0874 83.1965 61.2061 83.1322C62.8127 82.263 63.837 82.0713 65.2367 82.5891C65.7108 82.7645 66.0724 82.9618 66.8702 83.4504L66.8807 83.4569C67.8961 84.0787 68.386 84.3341 69.098 84.542C70.9074 85.0693 72.0631 84.649 74.2591 83.1953L74.2784 83.1825C75.9706 82.0625 75.6248 81.111 73.558 82.479ZM93.1984 76.8391C93.1168 76.793 93.1168 76.793 93.0347 76.7465C91.6952 75.9878 91.0002 75.6912 89.9777 75.5862C88.5826 75.4428 87.6726 75.7726 86.3303 76.6541C86.2577 76.7018 85.9971 76.8744 86.0117 76.8647C85.4582 77.2305 85.1294 77.4244 84.7453 77.5931C83.2842 78.235 82.1715 78.0284 80.3136 77.0251C80.2092 76.9687 80.0997 76.9087 79.9688 76.8362C79.8863 76.7905 79.7946 76.7395 79.6182 76.6413C79.4715 76.5597 79.3633 76.4999 79.2558 76.4412C77.1852 75.3114 75.1245 75.4662 73.0841 76.7659L73.0651 76.7781C71.1876 77.9741 70.3409 78.2705 69.0628 77.9121C68.5023 77.7545 68.083 77.5442 67.1702 77.0062L67.1598 77.0001C66.3069 76.4974 65.9046 76.2861 65.3369 76.084C63.5309 75.441 62.142 75.6912 60.2655 76.6682C60.1423 76.7324 60.0149 76.8002 59.859 76.8844C59.7781 76.928 59.5007 77.0786 59.4569 77.1023C58.9395 77.3823 58.6092 77.551 58.2563 77.7083C56.8728 78.3256 55.9933 78.1889 54.5531 77.3734C54.4014 77.2875 54.2502 77.1992 53.9353 77.0144C52.8395 76.3744 52.1633 76.0648 51.2662 75.8849C49.629 75.5563 48.603 75.909 46.6674 77.0699L46.6126 77.1027C45.0094 78.064 44.2557 78.3249 43.1323 78.1118C42.4173 77.9762 41.8757 77.7356 40.726 77.1065L40.6266 77.0522C38.8815 76.098 37.9255 75.7684 36.4861 75.8865L36.6041 76.7475C37.6877 76.6585 38.4459 76.9199 39.9809 77.7592L40.08 77.8134C41.3433 78.5047 41.9689 78.7826 42.8659 78.9527C44.4327 79.2499 45.4396 78.9013 47.298 77.7871L47.3528 77.7542C49.0294 76.7487 49.7977 76.4846 50.9854 76.723C51.7 76.8663 52.2759 77.13 53.2611 77.7054C53.5739 77.889 53.7328 77.9818 53.8923 78.0721C55.6538 79.0694 56.9825 79.276 58.8151 78.4584C59.2031 78.2854 59.5559 78.1052 60.0981 77.8119C60.143 77.7876 60.4198 77.6373 60.4992 77.5944C60.6504 77.5128 60.773 77.4476 60.8901 77.3866C62.4762 76.5608 63.4874 76.3786 64.8692 76.8705C65.3372 77.0372 65.6942 77.2246 66.4818 77.6888L66.4922 77.695C67.4946 78.2857 67.9783 78.5284 68.6811 78.7259C70.4674 79.2269 71.6084 78.8275 73.7763 77.4465L73.7953 77.4343C75.4658 76.3702 76.9762 76.2568 78.6107 77.1486C78.7149 77.2056 78.8209 77.2641 78.9653 77.3444C79.141 77.4422 79.2339 77.4939 79.3176 77.5403C79.4517 77.6146 79.5647 77.6765 79.6733 77.7351C81.8465 78.9086 83.3722 79.192 85.2979 78.346C85.7604 78.1428 86.1341 77.9224 86.7383 77.5232C86.7253 77.5318 86.9838 77.3606 87.0544 77.3142C88.178 76.5763 88.8264 76.3413 89.8304 76.4445C90.6054 76.5241 91.1824 76.7703 92.3738 77.4451C92.4558 77.4916 92.4558 77.4916 92.5384 77.5383C92.8991 77.7421 93.5413 77.0329 93.1984 76.8391ZM85.9827 71.895C85.9105 71.9446 85.6517 72.1238 85.6663 72.1138C85.1166 72.4936 84.7901 72.695 84.4087 72.8702C82.9578 73.5368 81.8528 73.3222 80.0079 72.2804C79.9042 72.2218 79.7954 72.1594 79.6655 72.0842C79.5836 72.0367 79.4925 71.9837 79.3174 71.8818C79.1717 71.797 79.0642 71.7349 78.9575 71.674C76.9013 70.5006 74.855 70.6614 72.8288 72.0111L72.8099 72.0238C70.9455 73.2659 70.1047 73.5737 68.8356 73.2014C68.2789 73.0378 67.8626 72.8194 66.9562 72.2607L66.9458 72.2543C66.0989 71.7323 65.6993 71.5129 65.1357 71.303C63.3422 70.6352 61.963 70.8951 60.0996 71.9097C59.9773 71.9763 59.8507 72.0468 59.6959 72.1342C59.6157 72.1795 59.3402 72.3359 59.2966 72.3605C58.7828 72.6513 58.4548 72.8264 58.1044 72.9899C56.7306 73.6309 55.8572 73.4889 54.4271 72.642C54.2764 72.5528 54.1262 72.4611 53.8135 72.2692C52.7255 71.6045 52.054 71.2831 51.1631 71.0962C49.5374 70.755 48.5185 71.1212 46.5963 72.3268L46.542 72.3609C44.9499 73.3592 44.2015 73.6302 43.0859 73.4089C42.376 73.268 41.8381 73.0181 40.6964 72.3649L40.5978 72.3084C38.8648 71.3175 37.9155 70.9752 36.4861 71.0979L36.6033 71.992C37.6794 71.8996 38.4322 72.1711 39.9565 73.0427L40.0549 73.099C41.3094 73.8168 41.9306 74.1055 42.8214 74.2821C44.3772 74.5908 45.3772 74.2288 47.2226 73.0716L47.277 73.0375C48.9419 71.9933 49.7048 71.719 50.8842 71.9666C51.5939 72.1154 52.1658 72.3892 53.1441 72.9868C53.4547 73.1775 53.6125 73.2739 53.7709 73.3677C55.5201 74.4034 56.8396 74.6179 58.6594 73.7688C59.0446 73.5891 59.395 73.402 59.9334 73.0974C59.978 73.0721 60.2529 72.9161 60.3317 72.8716C60.4818 72.7868 60.6035 72.719 60.7199 72.6557C62.2949 71.7981 63.2991 71.6089 64.6712 72.1198C65.1359 72.2928 65.4904 72.4875 66.2726 72.9696L66.2829 72.976C67.2783 73.5895 67.7586 73.8415 68.4566 74.0467C70.2304 74.5669 71.3634 74.1522 73.5161 72.7179L73.5351 72.7053C75.1939 71.6002 76.6938 71.4824 78.3169 72.4086C78.4203 72.4677 78.5256 72.5285 78.669 72.6119C78.8434 72.7135 78.9357 72.7672 79.0188 72.8153C79.152 72.8925 79.2642 72.9568 79.372 73.0177C81.5301 74.2364 83.0451 74.5306 84.9574 73.6521C85.4166 73.441 85.7877 73.2122 86.3878 72.7976C86.3748 72.8065 86.6316 72.6287 86.7017 72.5805C87.8174 71.8142 87.316 70.9796 85.9827 71.895Z" fill="#FF957A" fill-opacity="0.5"/>
<path fill-rule="evenodd" clip-rule="evenodd" d="M36.0205 90.8872H44.9105C53.2361 90.8872 57.3989 90.8872 57.3989 90.8872H69.6756L70.5223 91.4052C70.5223 91.4052 70.9456 94.6858 70.9456 94.8153C70.9456 94.9016 70.8045 95.5779 70.5223 96.844C68.2645 96.844 66.5006 96.844 65.2306 96.844C63.3256 96.844 54.2239 96.8009 53.3772 96.844C52.5305 96.8872 45.5455 96.8009 43.6405 96.844C41.7355 96.8872 37.0788 96.8872 36.2322 96.8872C35.3855 96.8872 36.0205 96.2829 36.0205 96.2829C36.0205 96.2829 35.8794 95.5779 35.5972 94.1678C35.5972 93.3908 35.5972 92.9448 35.5972 92.8297C35.5972 92.657 35.5972 91.4915 35.5972 91.4915C35.5972 91.4915 35.7383 91.2901 36.0205 90.8872Z" fill="#FF957A" fill-opacity="0.5"/>
<path fill-rule="evenodd" clip-rule="evenodd" d="M94.7106 60.8872H109.951C124.223 60.8872 131.359 60.8872 131.359 60.8872H152.405L153.856 63.3045C153.856 63.3045 154.582 78.6138 154.582 79.2181C154.582 79.621 154.34 82.7769 153.856 88.6858C149.986 88.6858 146.962 88.6858 144.785 88.6858C141.519 88.6858 125.916 88.4843 124.465 88.6858C123.014 88.8872 111.039 88.4843 107.773 88.6858C104.508 88.8872 96.5249 88.8872 95.0734 88.8872C93.622 88.8872 94.7106 86.0671 94.7106 86.0671C94.7106 86.0671 94.4687 82.7769 93.9849 76.1966C93.9849 72.5707 93.9849 70.4891 93.9849 69.952C93.9849 69.1462 93.9849 63.7074 93.9849 63.7074C93.9849 63.7074 94.2268 62.7673 94.7106 60.8872Z" fill="#FF957A" fill-opacity="0.5"/>
<path fill-rule="evenodd" clip-rule="evenodd" d="M127.206 69.956C131.715 70.7811 132.097 75.1725 131.073 77.3111C130.411 78.6947 128.652 79.7609 127.887 79.8204C125.786 79.9837 123.403 79.923 121.701 78.7618C120 77.6005 118.707 75.9438 118.947 75.236C119.186 74.528 118.78 72.2117 121.199 71.2526C123.617 70.2936 125.661 69.6731 127.206 69.956ZM124.243 72.6455L124.186 72.6513C123.973 72.7316 124.174 73.008 124.247 73.3485C124.319 73.6891 124.357 73.862 124.383 74.1609C124.396 74.3103 124.399 74.3996 124.4 74.5256L124.4 74.7005C124.4 74.7347 124.399 74.7718 124.399 74.8128L124.399 75.1102C124.401 75.7023 124.432 75.487 124.464 75.8638C124.497 76.2407 124.487 76.1298 124.51 76.3958C124.533 76.6617 124.447 77.1045 124.586 77.268C124.724 77.4315 125.89 76.2789 126.272 76.0293C126.399 75.9462 126.471 75.8963 126.522 75.8593L126.602 75.7966C126.649 75.7583 126.694 75.7188 126.815 75.6301C127.087 75.4305 127.195 75.3506 127.576 75.0712C127.956 74.7917 128.529 74.5897 128.386 74.4761C128.243 74.3626 128.021 74.3187 127.257 73.9867C126.812 73.793 126.616 73.7114 126.453 73.6413L126.317 73.5818C126.247 73.551 126.173 73.5172 126.076 73.4723C125.688 73.2926 124.4 72.5709 124.186 72.6513L124.243 72.6455Z" fill="#FEFEFE"/>
<path fill-rule="evenodd" clip-rule="evenodd" d="M154.507 119.677C136.676 119.181 123.46 118.933 114.859 118.933C107.812 118.933 101.065 119.099 94.6179 119.432C90.8609 119.626 87.6166 117.371 87.3716 114.395C87.362 114.278 87.3572 114.161 87.3572 114.044C87.3572 110.825 87.3572 107.047 87.3572 102.711C87.3572 93.7631 88.329 76.7931 88.5031 63.1094C88.5421 60.0415 88.4606 56.5543 88.2585 52.6478L88.2585 52.6478C88.1044 49.668 91.029 47.1534 94.7909 47.0313C94.8164 47.0305 94.842 47.0298 94.8676 47.0292C98.8893 46.9345 104.407 46.8872 111.421 46.8872C122.715 46.8872 130.136 47.5961 147.517 47.8415C148.565 47.8562 150.961 47.7938 154.703 47.654C158.464 47.5135 161.656 49.8146 161.834 52.7936C161.839 52.8784 161.841 52.9632 161.841 53.048C161.841 56.6898 161.841 61.9522 161.841 68.8349C161.841 79.8314 161.268 88.0919 161.268 106.051C161.268 107.225 161.365 109.902 161.559 114.082H161.559C161.697 117.062 158.759 119.567 154.996 119.677C154.833 119.681 154.67 119.681 154.507 119.677Z" fill="#FEFEFE"/>
<path fill-rule="evenodd" clip-rule="evenodd" d="M161.841 62.8872C140.093 62.7478 124.311 62.6781 114.495 62.6781C104.679 62.6781 96.0176 62.7478 88.5121 62.8872C88.1271 62.0526 87.9347 60.8336 87.9347 59.2301C87.9347 57.2689 87.7592 53.4419 87.9347 50.4428C88.049 48.4883 90.0719 46.9455 92.5418 46.9289C96.6833 46.9011 102.846 46.8872 111.031 46.8872C122.412 46.8872 129.89 47.0426 147.407 47.0964C148.576 47.0999 151.408 47.0828 155.905 47.0449C159.149 47.0175 161.807 49.0785 161.841 51.6481C161.841 51.6646 161.841 51.6811 161.841 51.6977C161.841 54.1079 161.841 55.7511 161.841 59.6872C161.841 60.0487 161.841 61.1153 161.841 62.8872Z" fill="#4E5747"/>
<path fill-rule="evenodd" clip-rule="evenodd" d="M98.2395 49.0058C96.6555 49.2999 95.1104 49.7287 93.6408 50.2821C93.3425 50.3947 93.0426 50.5146 92.8 50.692C92.5755 50.8556 92.409 51.062 92.2459 51.2661C91.7818 51.8442 91.3112 52.4454 91.1818 53.1228C90.9776 54.1886 91.6489 55.2241 92.2982 56.1713C92.5099 56.481 92.7258 56.7949 93.031 57.0514C93.3025 57.2789 93.635 57.454 93.9668 57.6236C94.4937 57.8938 95.035 58.1595 95.6349 58.3047C96.0347 58.4017 96.4524 58.443 96.8679 58.4839C97.9639 58.591 99.0669 58.6972 100.17 58.6549C100.595 58.6384 101.027 58.5979 101.408 58.4486C101.804 58.2928 102.114 58.0303 102.415 57.7739C103.293 57.0252 104.214 56.2048 104.368 55.1905C104.413 54.8895 104.387 54.5857 104.361 54.2833C104.336 53.9942 104.311 53.7056 104.286 53.4169C104.265 53.1683 104.243 52.9178 104.163 52.677C103.973 52.1085 103.477 51.642 103.097 51.1374C102.929 50.9149 102.782 50.6819 102.599 50.4668C101.822 49.5532 100.451 49.0425 99.0733 48.8872" fill="#F3B244"/>
<path fill-rule="evenodd" clip-rule="evenodd" d="M100.298 59.0771C100.19 58.8106 99.958 56.27 99.958 56.27C99.958 56.27 101.752 55.9294 101.643 54.8811C101.534 53.8323 101.596 51.7251 101.596 51.7251L98.4373 50.7856L96.2232 51.5794L95.7126 53.8971L97.1231 56.4745L96.16 58.8115L100.298 59.0771Z" fill="#FEFEFE"/>
<path fill-rule="evenodd" clip-rule="evenodd" d="M96.1657 52.1058C96.2812 53.1426 97.5907 53.8982 99.0906 53.7929C100.59 53.6882 101.713 52.7621 101.596 51.7252C101.48 50.6884 100.171 49.9324 98.6711 50.0376C97.1712 50.1429 96.0497 51.0685 96.1657 52.1058Z" fill="#FEFEFE"/>
<path fill-rule="evenodd" clip-rule="evenodd" d="M97.5477 53.0081C99.1706 52.851 100.805 52.1703 101.25 50.929C101.25 50.929 100.878 50.559 100.679 50.3857C99.9144 49.7161 98.4616 49.365 97.1503 49.8112C96.5463 50.0171 95.9992 50.2253 95.6528 50.6656C95.3076 51.1064 94.063 53.1226 93.8182 53.8699C93.5704 54.6163 93.4898 56.3687 94.0775 56.9841C93.5605 57.1376 97.4392 57.0645 97.4392 57.0645C97.4392 57.0645 97.6029 53.1129 97.5477 53.0081Z" fill="#C9583C"/>
<path fill-rule="evenodd" clip-rule="evenodd" d="M98.8962 53.5593C98.6368 53.3893 98.2771 53.466 98.1767 53.7257C98.1373 53.8277 98.3392 53.8714 98.378 53.7698C98.4291 53.6384 98.6084 53.585 98.7482 53.6765C98.8515 53.7441 99.0006 53.6273 98.8962 53.5593Z" fill="#2B4156"/>
<path fill-rule="evenodd" clip-rule="evenodd" d="M98.9133 54.005C98.9034 53.9857 98.8947 53.9668 98.8849 53.948C98.8123 53.8004 98.5095 53.8643 98.5826 54.0142C98.5913 54.033 98.6012 54.0523 98.6104 54.0711C98.683 54.2187 98.9864 54.1543 98.9133 54.005Z" fill="#2B4156"/>
<path fill-rule="evenodd" clip-rule="evenodd" d="M101.023 52.9729C100.763 52.8028 100.404 52.8796 100.303 53.1393C100.264 53.2413 100.466 53.2849 100.505 53.1834C100.556 53.0519 100.735 52.9986 100.875 53.0901C100.978 53.1576 101.127 53.0409 101.023 52.9729Z" fill="#2B4156"/>
<path fill-rule="evenodd" clip-rule="evenodd" d="M101.039 53.4187C101.03 53.3994 101.021 53.3805 101.011 53.3617C100.939 53.2141 100.636 53.278 100.709 53.4279C100.718 53.4467 100.728 53.466 100.737 53.4848C100.809 53.6324 101.113 53.568 101.039 53.4187Z" fill="#2B4156"/>
<path fill-rule="evenodd" clip-rule="evenodd" d="M99.7332 53.0548C99.8254 53.2088 99.9171 53.3628 100.01 53.5167C100.052 53.587 100.094 53.6564 100.135 53.7268C100.181 53.804 100.496 54.3334 100.049 54.2548C99.9502 54.2374 99.9084 54.3573 100.007 54.3748C100.299 54.4258 100.476 54.2314 100.439 54.0108C100.414 53.8605 100.301 53.7139 100.221 53.5801C100.103 53.3839 99.9861 53.1881 99.8684 52.9919C99.8254 52.9197 99.6902 52.9827 99.7332 53.0548Z" fill="#2B4156"/>
<path fill-rule="evenodd" clip-rule="evenodd" d="M100.033 50.9759C100.212 51.1188 100.302 51.3141 100.438 51.4833C100.715 51.8261 101.146 52.0476 101.585 52.2577C101.584 52.0357 101.642 51.7852 101.563 51.5435C101.518 51.4061 101.477 51.2838 101.413 51.151C101.304 50.9249 101.062 50.741 100.772 50.6634C100.732 50.6528 100.689 50.6441 100.649 50.6523C100.602 50.662 100.568 50.6914 100.536 50.7194C100.45 50.7966 100.362 50.8743 100.275 50.9515C100.136 51.0756 99.9859 51.2374 100.059 51.3937" fill="#C9583C"/>
<path fill-rule="evenodd" clip-rule="evenodd" d="M98.1125 54.8716C98.0725 54.8073 98.1259 54.7324 98.1294 54.6607C98.134 54.583 98.0795 54.5118 98.0203 54.4506C97.96 54.3895 97.8915 54.3312 97.8584 54.2585C97.8097 54.1524 97.8439 54.0347 97.841 53.9217C97.8393 53.8532 97.819 53.7783 97.7511 53.736C97.6994 53.7043 97.6321 53.6974 97.5689 53.6845C97.4888 53.6689 97.4111 53.6422 97.3415 53.6068C97.2881 53.5797 97.2382 53.5475 97.1807 53.5264C97.0954 53.4952 96.9986 53.4841 96.9046 53.4883C96.2031 53.5172 96.1747 53.9442 96.1683 53.9947C96.1491 54.1464 96.1602 54.3031 96.2298 54.4451C96.2663 54.52 96.3191 54.5899 96.3719 54.6588C96.5193 54.851 96.6794 55.0477 96.9214 55.1649C97.0281 55.2163 97.32 55.4162 97.4134 55.5325C97.4418 55.5688 97.4813 55.5992 97.5231 55.6263C97.631 55.6948 97.7865 55.6911 97.9205 55.6658C98.0667 55.6387 98.4421 55.4686 98.1851 54.9764C98.1671 54.942 98.1334 54.9052 98.1125 54.8716Z" fill="#FEFEFE"/>
<path fill-rule="evenodd" clip-rule="evenodd" d="M97.738 54.7789C97.7804 54.8231 97.8425 54.8552 97.8686 54.9085C97.8784 54.9292 97.8808 54.9517 97.8721 54.9729C97.8494 55.0308 97.6585 54.9596 97.6376 54.9292C97.6295 54.9182 97.622 54.9062 97.6086 54.8989C97.5883 54.8869 97.5611 54.8883 97.5355 54.8892C97.3905 54.8934 97.2419 54.8617 97.1265 54.7913C96.9948 54.71 96.9159 54.5836 96.8793 54.454C96.8486 54.3451 96.8451 54.2329 96.8457 54.1213C96.8457 54.0863 96.7987 54.0633 96.7604 54.0808C96.6971 54.1098 96.6484 54.1608 96.6252 54.2164C96.5927 54.2954 96.6043 54.3818 96.6322 54.4623C96.725 54.7307 96.9867 54.9421 97.271 55.1052C97.0244 55.0487 96.8248 54.8993 96.689 54.7261C96.5904 54.5992 96.5213 54.4586 96.4865 54.3124C96.4511 54.1681 96.4575 54.0022 96.5863 53.8961C96.6733 53.823 96.8027 53.7922 96.9281 53.7747C97.0342 53.76 97.1468 53.7531 97.2489 53.7825C97.2768 53.7908 97.304 53.8014 97.3238 53.8184C97.3377 53.8294 97.3475 53.8423 97.3568 53.8561C97.3934 53.9112 97.423 53.9696 97.4462 54.0298C97.4607 54.0693 97.4734 54.1098 97.47 54.1511C97.4665 54.187 97.4514 54.221 97.4357 54.2545C97.376 54.3874 97.304 54.5321 97.1346 54.5882C97.1131 54.5951 97.0957 54.608 97.087 54.6254C97.0621 54.6751 97.13 54.7013 97.1845 54.7017C97.2802 54.7017 97.3708 54.6613 97.4381 54.607C97.4734 54.579 97.5036 54.5473 97.5309 54.5142C97.5506 54.4908 97.568 54.4476 97.6023 54.4361C97.6046 54.4356 97.6063 54.4361 97.6081 54.4375C97.6458 54.4816 97.644 54.5615 97.6568 54.6135C97.6719 54.6718 97.6916 54.7307 97.738 54.7789Z" fill="#FEFEFE"/>
<path fill-rule="evenodd" clip-rule="evenodd" d="M99.2861 54.9376C99.2861 54.9376 99.9232 55.2074 100.842 55.0838C100.842 55.0838 99.9592 56.3288 99.2861 54.9376Z" fill="#2B4156"/>
<path fill-rule="evenodd" clip-rule="evenodd" d="M99.6619 107.366C98.6059 107.562 97.5758 107.848 96.596 108.217C96.3972 108.292 96.1972 108.372 96.0356 108.49C95.8859 108.6 95.7748 108.737 95.6662 108.873C95.3567 109.259 95.043 109.659 94.9568 110.111C94.8206 110.821 95.2681 111.512 95.701 112.143C95.8421 112.35 95.986 112.559 96.1895 112.73C96.3705 112.882 96.5922 112.998 96.8134 113.111C97.1646 113.292 97.5255 113.469 97.9255 113.566C98.192 113.63 98.4705 113.658 98.7474 113.685C99.4781 113.756 100.213 113.827 100.949 113.799C101.232 113.788 101.52 113.761 101.774 113.661C102.038 113.558 102.245 113.383 102.446 113.212C103.031 112.713 103.645 112.166 103.747 111.489C103.777 111.289 103.76 111.086 103.743 110.885C103.726 110.692 103.71 110.499 103.693 110.307C103.679 110.141 103.665 109.974 103.611 109.814C103.484 109.435 103.154 109.124 102.9 108.787C102.788 108.639 102.69 108.484 102.568 108.34C102.05 107.731 101.136 107.391 100.218 107.287" fill="#F3B244"/>
<path fill-rule="evenodd" clip-rule="evenodd" d="M101.034 114.081C100.962 113.903 100.808 112.209 100.808 112.209C100.808 112.209 102.004 111.982 101.931 111.283C101.859 110.584 101.9 109.179 101.9 109.179L99.7937 108.553L98.3177 109.082L97.9773 110.627L98.9176 112.345L98.2755 113.903L101.034 114.081Z" fill="#FEFEFE"/>
<path fill-rule="evenodd" clip-rule="evenodd" d="M98.2794 109.433C98.3564 110.124 99.2294 110.628 100.229 110.558C101.229 110.488 101.977 109.871 101.9 109.179C101.823 108.488 100.95 107.984 99.9496 108.054C98.9498 108.124 98.2021 108.741 98.2794 109.433Z" fill="#FEFEFE"/>
<path fill-rule="evenodd" clip-rule="evenodd" d="M99.2006 110.034C100.283 109.93 101.372 109.476 101.669 108.648C101.669 108.648 101.421 108.402 101.288 108.286C100.778 107.84 99.8098 107.606 98.9356 107.903C98.533 108.04 98.1682 108.179 97.9373 108.473C97.7072 108.767 96.8775 110.111 96.7142 110.609C96.5491 111.107 96.4953 112.275 96.8871 112.685C96.5425 112.787 99.1283 112.739 99.1283 112.739C99.1283 112.739 99.2374 110.104 99.2006 110.034Z" fill="#C9583C"/>
<path fill-rule="evenodd" clip-rule="evenodd" d="M100.1 110.402C99.9268 110.289 99.687 110.34 99.6201 110.513C99.5938 110.581 99.7284 110.61 99.7543 110.542C99.7883 110.455 99.9079 110.419 100.001 110.48C100.07 110.525 100.169 110.447 100.1 110.402Z" fill="#2B4156"/>
<path fill-rule="evenodd" clip-rule="evenodd" d="M100.111 110.699C100.104 110.686 100.099 110.674 100.092 110.661C100.044 110.563 99.8419 110.605 99.8906 110.705C99.8964 110.718 99.903 110.731 99.9092 110.743C99.9575 110.842 100.16 110.799 100.111 110.699Z" fill="#2B4156"/>
<path fill-rule="evenodd" clip-rule="evenodd" d="M101.517 110.011C101.344 109.898 101.104 109.949 101.038 110.122C101.011 110.19 101.146 110.219 101.172 110.151C101.206 110.064 101.325 110.028 101.419 110.089C101.487 110.134 101.587 110.056 101.517 110.011Z" fill="#2B4156"/>
<path fill-rule="evenodd" clip-rule="evenodd" d="M101.528 110.308C101.522 110.295 101.516 110.283 101.51 110.27C101.461 110.172 101.259 110.214 101.308 110.314C101.314 110.327 101.32 110.34 101.327 110.352C101.375 110.451 101.577 110.408 101.528 110.308Z" fill="#2B4156"/>
<path fill-rule="evenodd" clip-rule="evenodd" d="M100.658 110.066C100.719 110.168 100.78 110.271 100.842 110.374C100.87 110.42 100.898 110.467 100.926 110.514C100.956 110.565 101.166 110.918 100.868 110.866C100.802 110.854 100.774 110.934 100.84 110.946C101.035 110.98 101.153 110.85 101.128 110.703C101.112 110.603 101.036 110.505 100.983 110.416C100.904 110.285 100.826 110.155 100.748 110.024C100.719 109.976 100.629 110.018 100.658 110.066Z" fill="#2B4156"/>
<path fill-rule="evenodd" clip-rule="evenodd" d="M100.858 108.68C100.977 108.775 101.037 108.905 101.128 109.018C101.312 109.247 101.599 109.394 101.893 109.534C101.891 109.386 101.93 109.219 101.878 109.058C101.848 108.966 101.82 108.885 101.778 108.796C101.705 108.646 101.544 108.523 101.35 108.471C101.324 108.464 101.295 108.458 101.268 108.464C101.237 108.47 101.215 108.49 101.193 108.509C101.136 108.56 101.077 108.612 101.019 108.663C100.926 108.746 100.826 108.854 100.875 108.958" fill="#C9583C"/>
<path fill-rule="evenodd" clip-rule="evenodd" d="M99.5771 111.277C99.5505 111.234 99.586 111.184 99.5884 111.136C99.5915 111.084 99.5551 111.037 99.5156 110.996C99.4754 110.955 99.4298 110.916 99.4077 110.868C99.3752 110.797 99.3981 110.719 99.3961 110.643C99.395 110.598 99.3814 110.548 99.3362 110.52C99.3017 110.499 99.2569 110.494 99.2147 110.485C99.1613 110.475 99.1095 110.457 99.0631 110.434C99.0275 110.416 98.9942 110.394 98.9559 110.38C98.8991 110.359 98.8345 110.352 98.7718 110.355C98.3042 110.374 98.2852 110.659 98.281 110.692C98.2682 110.793 98.2756 110.898 98.322 110.992C98.3463 111.042 98.3815 111.089 98.4167 111.135C98.515 111.263 98.6217 111.394 98.783 111.472C98.8542 111.507 99.0488 111.64 99.111 111.717C99.13 111.742 99.1563 111.762 99.1842 111.78C99.2561 111.826 99.3598 111.823 99.4491 111.806C99.5466 111.788 99.7969 111.675 99.6255 111.347C99.6135 111.324 99.5911 111.299 99.5771 111.277Z" fill="#FEFEFE"/>
<path fill-rule="evenodd" clip-rule="evenodd" d="M99.3276 111.215C99.3559 111.245 99.3973 111.266 99.4147 111.302C99.4212 111.315 99.4228 111.33 99.417 111.344C99.4019 111.383 99.2746 111.336 99.2607 111.315C99.2553 111.308 99.2503 111.3 99.2414 111.295C99.2278 111.287 99.2097 111.288 99.1926 111.289C99.0959 111.291 98.9969 111.27 98.9199 111.223C98.8321 111.169 98.7795 111.085 98.7552 110.999C98.7347 110.926 98.7323 110.851 98.7327 110.777C98.7327 110.753 98.7014 110.738 98.6759 110.75C98.6337 110.769 98.6012 110.803 98.5857 110.84C98.5641 110.893 98.5718 110.95 98.5904 111.004C98.6523 111.183 98.8267 111.324 99.0163 111.433C98.8519 111.395 98.7188 111.295 98.6283 111.18C98.5625 111.095 98.5165 111.002 98.4933 110.904C98.4697 110.808 98.474 110.697 98.5598 110.627C98.6178 110.578 98.7041 110.557 98.7877 110.546C98.8584 110.536 98.9335 110.531 99.0016 110.551C99.0201 110.556 99.0383 110.563 99.0515 110.575C99.0607 110.582 99.0673 110.591 99.0735 110.6C99.0979 110.637 99.1176 110.676 99.1331 110.716C99.1427 110.742 99.1512 110.769 99.1489 110.797C99.1466 110.82 99.1366 110.843 99.1261 110.866C99.0863 110.954 99.0383 111.051 98.9254 111.088C98.911 111.093 98.8994 111.101 98.8936 111.113C98.877 111.146 98.9223 111.163 98.9586 111.164C99.0224 111.164 99.0828 111.137 99.1277 111.101C99.1512 111.082 99.1714 111.061 99.1895 111.039C99.2027 111.023 99.2143 110.994 99.2371 110.987C99.2387 110.986 99.2398 110.987 99.241 110.987C99.2661 111.017 99.265 111.07 99.2735 111.105C99.2835 111.144 99.2967 111.183 99.3276 111.215Z" fill="#FEFEFE"/>
<path fill-rule="evenodd" clip-rule="evenodd" d="M100.36 111.321C100.36 111.321 100.784 111.501 101.397 111.418C101.397 111.418 100.808 112.248 100.36 111.321Z" fill="#2B4156"/>
<path fill-rule="evenodd" clip-rule="evenodd" d="M99.4768 93.4155L139.183 92.8872L147.79 93.1356C148.087 93.1442 148.32 93.3425 148.309 93.5784C148.309 93.5796 148.309 93.5808 148.309 93.5819L147.687 104.629C147.674 104.857 147.436 105.037 147.148 105.037H120.883H105.056H100.447C100.155 105.037 99.9161 104.854 99.9072 104.623L99.4768 93.4155Z" fill="#4E5747"/>
<path fill-rule="evenodd" clip-rule="evenodd" d="M143.324 100.613C142.534 100.431 142.002 100.58 141.285 101.04C141.247 101.065 141.209 101.09 141.156 101.124C141.092 101.166 141.059 101.188 141.028 101.208C140.771 101.376 140.601 101.475 140.412 101.56C139.835 101.82 139.243 101.763 138.572 101.424C138.463 101.37 138.358 101.311 138.193 101.216C138.154 101.193 138.154 101.193 138.114 101.17C137.468 100.795 137.133 100.649 136.64 100.597C135.967 100.526 135.528 100.689 134.88 101.124C134.845 101.148 134.72 101.233 134.727 101.228C134.46 101.409 134.301 101.505 134.116 101.588C133.411 101.905 132.874 101.803 131.978 101.308C131.928 101.28 131.875 101.25 131.812 101.214C131.772 101.192 131.728 101.167 131.643 101.118C131.572 101.078 131.52 101.048 131.468 101.019C130.469 100.461 129.475 100.538 128.491 101.18L128.482 101.186C127.577 101.776 127.168 101.923 126.552 101.746C126.281 101.668 126.079 101.564 125.639 101.298L125.634 101.295C125.222 101.047 125.028 100.943 124.755 100.843C123.883 100.525 123.214 100.649 122.308 101.131C122.249 101.163 122.188 101.197 122.112 101.238C122.073 101.26 121.94 101.334 121.918 101.346C121.669 101.484 121.51 101.567 121.339 101.645C120.672 101.95 120.248 101.882 119.553 101.48C119.48 101.437 119.407 101.394 119.255 101.302C118.727 100.986 118.401 100.833 117.968 100.745C117.178 100.582 116.683 100.756 115.75 101.33L115.723 101.346C114.95 101.821 114.586 101.949 114.045 101.844C113.7 101.777 113.438 101.658 112.884 101.348L112.836 101.321C111.994 100.85 111.533 100.687 110.839 100.745L110.896 101.171C111.418 101.127 111.784 101.256 112.525 101.67L112.572 101.697C113.182 102.038 113.483 102.175 113.916 102.259C114.672 102.406 115.157 102.234 116.054 101.684L116.08 101.668C116.889 101.171 117.259 101.041 117.832 101.158C118.177 101.229 118.455 101.359 118.93 101.644C119.081 101.734 119.158 101.78 119.234 101.825C120.084 102.317 120.725 102.419 121.609 102.015C121.796 101.93 121.966 101.841 122.228 101.696C122.249 101.684 122.383 101.61 122.421 101.589C122.494 101.548 122.553 101.516 122.61 101.486C123.375 101.078 123.862 100.988 124.529 101.231C124.755 101.314 124.927 101.406 125.307 101.635L125.312 101.638C125.795 101.93 126.029 102.05 126.368 102.147C127.229 102.395 127.779 102.198 128.825 101.516L128.834 101.51C129.64 100.984 130.369 100.928 131.157 101.369C131.207 101.397 131.258 101.426 131.328 101.465C131.413 101.514 131.458 101.539 131.498 101.562C131.563 101.599 131.617 101.629 131.669 101.658C132.718 102.238 133.454 102.378 134.382 101.96C134.605 101.859 134.786 101.751 135.077 101.554C135.071 101.558 135.196 101.473 135.23 101.45C135.772 101.086 136.084 100.97 136.569 101.021C136.942 101.06 137.221 101.182 137.795 101.515C137.835 101.538 137.835 101.538 137.875 101.561C138.049 101.662 138.161 101.724 138.282 101.785C139.108 102.202 139.908 102.279 140.679 101.932C140.902 101.831 141.092 101.72 141.371 101.538C141.349 101.553 141.568 101.409 141.625 101.372C142.219 100.991 142.586 100.888 143.174 101.023L143.324 100.613Z" fill="#FEFEFE"/>
<path fill-rule="evenodd" clip-rule="evenodd" d="M137.075 97.0127C136.284 96.8307 135.753 96.9798 135.036 97.4401C134.998 97.4647 134.959 97.4897 134.907 97.5243C134.843 97.5665 134.809 97.5882 134.779 97.6082C134.521 97.7762 134.352 97.8749 134.163 97.9603C133.586 98.2203 132.993 98.1632 132.322 97.8244C132.214 97.7696 132.109 97.7115 131.944 97.6158C131.904 97.593 131.904 97.593 131.865 97.57C131.219 97.1954 130.884 97.049 130.39 96.9972C129.717 96.9263 129.279 97.0892 128.631 97.5244C128.596 97.548 128.47 97.6332 128.477 97.6285C128.21 97.8091 128.052 97.9048 127.867 97.9881C127.162 98.305 126.625 98.203 125.729 97.7077C125.679 97.6798 125.626 97.6501 125.563 97.6144C125.523 97.5918 125.479 97.5666 125.394 97.5181C125.323 97.4779 125.271 97.4483 125.219 97.4193C124.22 96.8615 123.226 96.9379 122.242 97.5797L122.233 97.5857C121.327 98.1762 120.919 98.3226 120.302 98.1456C120.032 98.0678 119.83 97.9639 119.39 97.6983L119.385 97.6953C118.973 97.4471 118.779 97.3427 118.505 97.2429C117.634 96.9255 116.964 97.049 116.059 97.5314C116 97.5631 115.938 97.5966 115.863 97.6382C115.824 97.6597 115.69 97.7341 115.669 97.7458C115.42 97.884 115.26 97.9673 115.09 98.045C114.423 98.3498 113.999 98.2823 113.304 97.8796C113.231 97.8372 113.158 97.7936 113.006 97.7023C112.477 97.3863 112.151 97.2335 111.719 97.1446C110.929 96.9824 110.434 97.1565 109.5 97.7297L109.474 97.7459C108.701 98.2206 108.337 98.3494 107.795 98.2442C107.45 98.1773 107.189 98.0584 106.635 97.7478L106.587 97.721C105.745 97.2498 105.284 97.0871 104.59 97.1454L104.647 97.5706C105.169 97.5266 105.535 97.6557 106.275 98.0701L106.323 98.0969C106.932 98.4382 107.234 98.5754 107.667 98.6594C108.422 98.8062 108.908 98.634 109.805 98.0839L109.831 98.0676C110.64 97.5712 111.01 97.4408 111.583 97.5585C111.928 97.6292 112.206 97.7594 112.681 98.0435C112.832 98.1342 112.908 98.18 112.985 98.2246C113.835 98.7171 114.476 98.819 115.36 98.4154C115.547 98.3299 115.717 98.241 115.978 98.0961C116 98.0841 116.134 98.0099 116.172 97.9888C116.245 97.9485 116.304 97.9162 116.36 97.8861C117.125 97.4784 117.613 97.3884 118.28 97.6313C118.505 97.7136 118.678 97.8062 119.058 98.0354L119.063 98.0384C119.546 98.3301 119.779 98.4499 120.118 98.5474C120.98 98.7948 121.53 98.5976 122.576 97.9157L122.585 97.9097C123.391 97.3843 124.119 97.3283 124.908 97.7686C124.958 97.7967 125.009 97.8257 125.079 97.8653C125.163 97.9136 125.208 97.9391 125.249 97.962C125.313 97.9987 125.368 98.0293 125.42 98.0582C126.468 98.6377 127.204 98.7775 128.133 98.3599C128.356 98.2595 128.536 98.1507 128.828 97.9536C128.822 97.9578 128.946 97.8733 128.98 97.8504C129.522 97.486 129.835 97.37 130.319 97.4209C130.693 97.4602 130.971 97.5818 131.546 97.915C131.586 97.938 131.586 97.938 131.625 97.961C131.799 98.0617 131.912 98.124 132.032 98.1849C132.858 98.6021 133.659 98.6791 134.43 98.3318C134.652 98.2315 134.842 98.1205 135.122 97.9382C135.1 97.9527 135.319 97.8089 135.376 97.7722C135.97 97.3911 136.337 97.288 136.924 97.4233L137.075 97.0127Z" fill="#FEFEFE"/>
<path fill-rule="evenodd" clip-rule="evenodd" d="M117.088 105.037C117.088 105.037 113.679 106.237 106.862 108.637L108.069 104.137C114.082 104.737 117.088 105.037 117.088 105.037Z" fill="#4E5747"/>
<path fill-rule="evenodd" clip-rule="evenodd" d="M101.244 67.4155L141.412 66.8872L150.125 67.1358C150.422 67.1443 150.655 67.3425 150.644 67.5784C150.644 67.5797 150.644 67.581 150.644 67.5823L150.015 78.629C150.002 78.8574 149.764 79.0372 149.476 79.0372H122.899H106.888H102.219C101.927 79.0372 101.689 78.8537 101.68 78.6229L101.244 67.4155Z" fill="#C5E9EF"/>
<path fill-rule="evenodd" clip-rule="evenodd" d="M134.762 79.0372C134.762 79.0372 138.171 80.2372 144.988 82.6372L143.781 78.1372C137.768 78.7372 134.762 79.0372 134.762 79.0372Z" fill="#C5E9EF"/>
<path fill-rule="evenodd" clip-rule="evenodd" d="M147.847 82.8479C147.791 83.7509 147.863 84.6584 148.061 85.5497C148.102 85.7305 148.148 85.9139 148.258 86.0776C148.358 86.2288 148.509 86.3573 148.658 86.4837C149.079 86.8423 149.521 87.2091 150.098 87.4082C151.006 87.7215 152.063 87.5616 153.037 87.3963C153.356 87.3425 153.679 87.2871 153.969 87.1733C154.225 87.0721 154.448 86.9281 154.666 86.7834C155.012 86.5536 155.357 86.3158 155.607 86.0228C155.774 85.8279 155.894 85.6123 156.014 85.3983C156.329 84.8334 156.645 84.2646 156.829 83.6671C156.9 83.4373 156.95 83.1979 156.893 82.9662C156.834 82.7245 156.663 82.5086 156.494 82.2985C156.004 81.6862 155.458 81.0362 154.585 80.7603C154.326 80.6785 154.05 80.634 153.775 80.5898C153.513 80.5476 153.251 80.5054 152.989 80.4635C152.763 80.4271 152.536 80.3907 152.305 80.3875C151.761 80.3797 151.246 80.5554 150.72 80.6617C150.488 80.7087 150.251 80.7426 150.022 80.7993C149.053 81.0394 148.323 81.6739 147.909 82.3797" fill="#FF957A"/>
<path fill-rule="evenodd" clip-rule="evenodd" d="M153.573 86.0683C153.338 86.2236 152.991 86.2621 152.679 86.223C152.368 86.1839 152.083 86.0773 151.803 85.9721C151.428 85.8304 151.027 85.6717 150.843 85.396C150.804 85.3374 150.776 85.2701 150.801 85.2075C150.851 85.0857 151.073 85.0481 151.244 85.0763C151.414 85.1043 151.57 85.1746 151.745 85.1858C151.919 85.197 152.13 85.1089 152.11 84.983C152.092 84.8733 151.92 84.819 151.772 84.7905C151.395 84.7188 150.999 84.6748 150.668 84.5269C150.339 84.379 149.886 83.9694 150.215 83.8184C150.756 83.5691 151.478 83.9886 152.07 84.1626C152.189 84.1288 152.198 83.9998 152.12 83.9278C152.042 83.8556 151.914 83.824 151.798 83.7877C151.519 83.7003 151.269 83.5657 151.074 83.3976C150.931 83.2742 150.813 83.121 150.836 82.9601C150.859 82.7992 151.075 82.6466 151.292 82.6845C151.514 82.7235 151.598 82.9121 151.685 83.0643C151.772 83.2169 151.992 83.3781 152.195 83.3C152.394 83.2237 152.343 83.0063 152.225 82.8696C152.06 82.6792 151.821 82.5201 151.711 82.3099C151.601 82.0997 151.693 81.8032 151.996 81.7462C152.285 81.6916 152.554 81.8944 152.62 82.1034C152.687 82.3127 152.626 82.5325 152.652 82.7465C152.682 82.9992 152.832 83.2342 152.979 83.4637C153.046 83.5666 153.16 83.6882 153.315 83.6646C153.566 83.6265 153.456 83.312 153.657 83.1958C153.843 83.0888 154.124 83.2615 154.111 83.4317C154.098 83.602 153.921 83.7393 153.771 83.872C153.671 83.9607 153.58 84.0537 153.496 84.1508C153.377 84.2891 153.274 84.4494 153.318 84.6078C153.362 84.766 153.621 84.8946 153.815 84.8122C153.811 84.5436 154.28 84.3356 154.607 84.4615C154.751 84.7836 154.46 85.1185 154.184 85.3954C153.99 85.5914 153.794 85.7873 153.599 85.9833" fill="#FEFEFE"/>
<path fill-rule="evenodd" clip-rule="evenodd" d="M143.955 74.6127C143.165 74.4307 142.634 74.5797 141.917 75.0401C141.878 75.0646 141.84 75.0897 141.787 75.1243C141.723 75.1664 141.69 75.1881 141.659 75.2082C141.402 75.3761 141.232 75.4749 141.043 75.5603C140.466 75.8202 139.874 75.7632 139.203 75.4244C139.094 75.3695 138.99 75.3115 138.824 75.2158C138.785 75.193 138.785 75.193 138.745 75.17C138.099 74.7954 137.764 74.649 137.271 74.5971C136.598 74.5263 136.159 74.6892 135.511 75.1244C135.476 75.148 135.351 75.2332 135.358 75.2284C135.091 75.409 134.932 75.5047 134.747 75.5881C134.042 75.905 133.506 75.803 132.609 75.3076C132.559 75.2798 132.506 75.2501 132.443 75.2143C132.403 75.1918 132.359 75.1666 132.274 75.1181C132.203 75.0778 132.151 75.0483 132.099 75.0193C131.1 74.4615 130.107 74.5379 129.122 75.1796L129.113 75.1856C128.208 75.7762 127.799 75.9225 127.183 75.7456C126.912 75.6678 126.71 75.5639 126.27 75.2983L126.265 75.2953C125.854 75.047 125.659 74.9427 125.386 74.8429C124.515 74.5254 123.845 74.649 122.94 75.1314C122.88 75.1631 122.819 75.1966 122.743 75.2381C122.704 75.2597 122.571 75.334 122.55 75.3457C122.3 75.484 122.141 75.5673 121.97 75.645C121.303 75.9497 120.879 75.8822 120.184 75.4796C120.111 75.4372 120.038 75.3936 119.886 75.3023C119.358 74.9863 119.032 74.8335 118.599 74.7446C117.809 74.5824 117.314 74.7565 116.381 75.3297L116.354 75.3459C115.581 75.8206 115.217 75.9494 114.676 75.8442C114.331 75.7772 114.07 75.6584 113.515 75.3478L113.467 75.321C112.625 74.8498 112.164 74.6871 111.47 74.7454L111.527 75.1705C112.05 75.1266 112.415 75.2557 113.156 75.6701L113.203 75.6969C113.813 76.0382 114.114 76.1754 114.547 76.2594C115.303 76.4061 115.789 76.234 116.685 75.6838L116.711 75.6676C117.52 75.1711 117.891 75.0407 118.463 75.1584C118.808 75.2292 119.086 75.3594 119.561 75.6435C119.712 75.7342 119.789 75.78 119.866 75.8246C120.715 76.317 121.356 76.419 122.24 76.0153C122.427 75.9299 122.597 75.8409 122.859 75.6961C122.88 75.6841 123.014 75.6099 123.052 75.5887C123.125 75.5484 123.184 75.5162 123.241 75.4861C124.006 75.0783 124.494 74.9884 125.16 75.2313C125.386 75.3136 125.558 75.4061 125.938 75.6353L125.943 75.6384C126.426 75.9301 126.66 76.0499 126.999 76.1474C127.86 76.3948 128.411 76.1976 129.456 75.5157L129.465 75.5097C130.271 74.9843 131 74.9282 131.788 75.3686C131.838 75.3967 131.889 75.4256 131.959 75.4653C132.044 75.5136 132.089 75.5391 132.129 75.562C132.194 75.5987 132.248 75.6292 132.301 75.6582C133.349 76.2376 134.085 76.3775 135.013 75.9598C135.237 75.8595 135.417 75.7507 135.708 75.5535C135.702 75.5578 135.827 75.4732 135.861 75.4504C136.403 75.086 136.715 74.9699 137.2 75.0209C137.573 75.0602 137.852 75.1818 138.426 75.515C138.466 75.5379 138.466 75.5379 138.506 75.561C138.68 75.6616 138.792 75.724 138.913 75.7849C139.739 76.202 140.54 76.2791 141.31 75.9318C141.533 75.8315 141.723 75.7205 142.002 75.5382C141.98 75.5526 142.199 75.4089 142.256 75.3722C142.85 74.9911 143.217 74.888 143.805 75.0232L143.955 74.6127Z" fill="#FF957A"/>
<path fill-rule="evenodd" clip-rule="evenodd" d="M139.979 71.0127C139.188 70.8307 138.657 70.9798 137.94 71.4401C137.902 71.4647 137.863 71.4897 137.81 71.5243C137.746 71.5665 137.713 71.5882 137.682 71.6082C137.425 71.7762 137.256 71.8749 137.066 71.9603C136.489 72.2203 135.897 72.1632 135.226 71.8244C135.117 71.7696 135.013 71.7115 134.847 71.6158C134.808 71.593 134.808 71.593 134.768 71.57C134.122 71.1954 133.787 71.049 133.294 70.9972C132.621 70.9263 132.182 71.0892 131.535 71.5244C131.5 71.548 131.374 71.6332 131.381 71.6285C131.114 71.8091 130.955 71.9048 130.77 71.9881C130.065 72.305 129.529 72.203 128.633 71.7077C128.582 71.6798 128.529 71.6501 128.466 71.6144C128.426 71.5918 128.382 71.5666 128.297 71.5181C128.226 71.4779 128.174 71.4483 128.122 71.4193C127.124 70.8615 126.13 70.9379 125.146 71.5797L125.136 71.5857C124.231 72.1762 123.822 72.3226 123.206 72.1456C122.936 72.0678 122.733 71.9639 122.293 71.6983L122.288 71.6953C121.877 71.4471 121.683 71.3427 121.409 71.2429C120.538 70.9255 119.868 71.049 118.963 71.5314C118.903 71.5631 118.842 71.5966 118.767 71.6382C118.728 71.6597 118.594 71.7341 118.573 71.7458C118.323 71.884 118.164 71.9673 117.994 72.045C117.326 72.3498 116.902 72.2823 116.207 71.8796C116.134 71.8372 116.061 71.7936 115.909 71.7023C115.381 71.3863 115.055 71.2335 114.622 71.1446C113.832 70.9824 113.338 71.1565 112.404 71.7297L112.378 71.7459C111.604 72.2206 111.241 72.3494 110.699 72.2442C110.354 72.1773 110.093 72.0584 109.538 71.7478L109.49 71.721C108.649 71.2498 108.187 71.0871 107.493 71.1454L107.55 71.5706C108.073 71.5266 108.438 71.6557 109.179 72.0701L109.227 72.0969C109.836 72.4382 110.138 72.5754 110.57 72.6594C111.326 72.8062 111.812 72.634 112.708 72.0839L112.735 72.0676C113.543 71.5712 113.914 71.4408 114.487 71.5585C114.831 71.6292 115.109 71.7594 115.584 72.0435C115.735 72.1342 115.812 72.18 115.889 72.2246C116.738 72.7171 117.379 72.819 118.263 72.4154C118.45 72.3299 118.62 72.241 118.882 72.0961C118.904 72.0841 119.037 72.0099 119.075 71.9888C119.148 71.9485 119.208 71.9162 119.264 71.8861C120.029 71.4784 120.517 71.3884 121.183 71.6313C121.409 71.7136 121.581 71.8062 121.961 72.0354L121.966 72.0384C122.45 72.3301 122.683 72.4499 123.022 72.5474C123.883 72.7948 124.434 72.5976 125.479 71.9157L125.489 71.9097C126.294 71.3843 127.023 71.3283 127.811 71.7686C127.861 71.7967 127.913 71.8257 127.982 71.8653C128.067 71.9136 128.112 71.9391 128.152 71.962C128.217 71.9987 128.271 72.0293 128.324 72.0582C129.372 72.6377 130.108 72.7775 131.037 72.3599C131.26 72.2595 131.44 72.1507 131.731 71.9536C131.725 71.9578 131.85 71.8733 131.884 71.8504C132.426 71.486 132.739 71.37 133.223 71.4209C133.597 71.4602 133.875 71.5818 134.45 71.915C134.489 71.938 134.489 71.938 134.529 71.961C134.703 72.0617 134.815 72.124 134.936 72.1849C135.762 72.6021 136.563 72.6791 137.333 72.3318C137.556 72.2315 137.746 72.1205 138.025 71.9382C138.003 71.9527 138.222 71.8089 138.28 71.7722C138.873 71.3911 139.241 71.288 139.828 71.4233L139.979 71.0127Z" fill="#FF957A"/>
</svg>
