<svg xmlns="http://www.w3.org/2000/svg" width="140" height="88" viewBox="0 0 140 88">
  <g fill="none" fill-rule="evenodd" transform="translate(37 16)">
    <polygon fill="#C5E9EF" points="12.913 2.658 66.913 0 65.739 45.151 12.913 46.957"/>
    <path fill="#3CB3C9" d="M20.292487 6.96811491L20.2798878 6.98098341C19.0396224 8.24773717 18.4802586 8.56162788 17.635963 8.18201858 17.2656723 8.01514514 16.9887104 7.79239013 16.385707 7.22262157L16.3788349 7.21612821C15.8153828 6.68372712 15.549605 6.459943 15.1746169 6.24588594 13.9815311 5.56491274 13.0640131 5.829901 11.8243951 6.86465506 11.743027 6.93257595 11.6588338 7.00446052 11.5558358 7.0936164 11.5024527 7.1398252 11.3191717 7.29930532 11.2902184 7.3244215 10.9484194 7.62092345 10.7302129 7.79956745 10.4971069 7.96624757 9.58313916 8.61994819 9.00216805 8.4751659 8.05074128 7.61152519 7.9505286 7.52055891 7.85062088 7.42701628 7.64260727 7.23127433 6.9187597 6.55344261 6.47205679 6.2255982 5.87940804 6.03502597 4.79787874 5.68700345 4.12008789 6.06051363 2.84137471 7.29001925L2.80522013 7.32478071C1.7460911 8.34290096 1.24819777 8.61924707.506084726 8.39355345.033778078 8.24994461-.262489137 9.10397449.33010323 9.28415723 1.3651237 9.59893072 2.03032427 9.22972396 3.25797522 8.04960683L3.2941996 8.01477827C4.40172523 6.94987255 4.90928663 6.6701707 5.69387559 6.92264155 6.16597473 7.07444984 6.54643295 7.35367592 7.19727294 7.96314123 7.4038692 8.15757719 7.50887369 8.25589187 7.61424671 8.35154236 8.7778571 9.40778897 9.65565492 9.62654267 10.8662711 8.76066908 11.1225699 8.57740512 11.355647 8.38658667 11.7138094 8.07588993 11.7434827 8.05014912 11.926341 7.89103686 11.9788139 7.84561587 12.0786717 7.75917819 12.1596397 7.69004736 12.2370486 7.62543135 13.2848028 6.75083297 13.9528277 6.55790078 14.8656443 7.07890579 15.1748043 7.25538574 15.4106324 7.45395229 15.9309494 7.94559539L15.9378236 7.95209072C16.5999749 8.57774723 16.9195209 8.83475181 17.383836 9.04399762 18.5638631 9.57455752 19.3175983 9.151594 20.7497122 7.68889446L20.7622958 7.67604193C21.3136335 6.92005751 21.3136335 6.3022458 20.292487 6.96811491zM20.292487 1.09854969L20.2798878 1.11141819C19.0396224 2.37817196 18.4802586 2.69206266 17.635963 2.31245336 17.2656723 2.14557993 16.9887104 1.92282491 16.385707 1.35305635L16.3788349 1.346563C15.8153828.814161899 15.549605.590377787 15.1746169.376320719 13.9815311-.304652476 13.0640131-.0396642128 11.8243951.995089839 11.743027 1.06301073 11.6588338 1.13489531 11.5558358 1.22405118 11.5024527 1.27025998 11.3191717 1.4297401 11.2902184 1.45485628 10.9484194 1.75135823 10.7302129 1.93000223 10.4971069 2.09668235 9.58313916 2.75038297 9.00216805 2.60560068 8.05074128 1.74195997 7.9505286 1.6509937 7.85062088 1.55745106 7.64260727 1.36170911 6.9187597.683877396 6.47205679.356032982 5.87940804.16546075 4.79787874-.182561768 4.12008789.190948414 2.84137471 1.42045404L2.80522013 1.45521549C1.7460911 2.47333575 1.24819777 2.74968186.506084726 2.52398824.033778078 2.38037939-.262489137 3.23440927.33010323 3.41459201 1.3651237 3.72936551 2.03032427 3.36015874 3.25797522 2.18004161L3.2941996 2.14521305C4.40172523 1.08030733 4.90928663.800605488 5.69387559 1.05307634 6.16597473 1.20488462 6.54643295 1.4841107 7.19727294 2.09357602 7.4038692 2.28801197 7.50887369 2.38632666 7.61424671 2.48197715 8.7778571 3.53822376 9.65565492 3.75697745 10.8662711 2.89110386 11.1225699 2.7078399 11.355647 2.51702145 11.7138094 2.20632471 11.7434827 2.18058391 11.926341 2.02147164 11.9788139 1.97605066 12.0786717 1.88961297 12.1596397 1.82048214 12.2370486 1.75586614 13.2848028.881267757 13.9528277.688335563 14.8656443 1.20934058 15.1748043 1.38582052 15.4106324 1.58438707 15.9309494 2.07603017L15.9378236 2.0825255C16.5999749 2.70818202 16.9195209 2.96518659 17.383836 3.1744324 18.5638631 3.7049923 19.3175983 3.28202878 20.7497122 1.81932924L20.7622958 1.80647671C21.3136335 1.05049229 21.3136335.432680584 20.292487 1.09854969zM20.292487 11.6637671L20.2798878 11.6766356C19.0396224 12.9433893 18.4802586 13.2572801 17.635963 12.8776708 17.2656723 12.7107973 16.9887104 12.4880423 16.385707 11.9182737L16.3788349 11.9117804C15.8153828 11.3793793 15.549605 11.1555952 15.1746169 10.9415381 13.9815311 10.2605649 13.0640131 10.5255532 11.8243951 11.5603072 11.743027 11.6282281 11.6588338 11.7001127 11.5558358 11.7892686 11.5024527 11.8354774 11.3191717 11.9949575 11.2902184 12.0200737 10.9484194 12.3165756 10.7302129 12.4952196 10.4971069 12.6618997 9.58313916 13.3156004 9.00216805 13.1708181 8.05074128 12.3071774 7.9505286 12.2162111 7.85062088 12.1226685 7.64260727 11.9269265 6.9187597 11.2490948 6.47205679 10.9212504 5.87940804 10.7306781 4.79787874 10.3826556 4.12008789 10.7561658 2.84137471 11.9856714L2.80522013 12.0204329C1.7460911 13.0385531 1.24819777 13.3148992.506084726 13.0892056.033778078 12.9455968-.262489137 13.7996267.33010323 13.9798094 1.3651237 14.2945829 2.03032427 13.9253761 3.25797522 12.745259L3.2941996 12.7104304C4.40172523 11.6455247 4.90928663 11.3658229 5.69387559 11.6182937 6.16597473 11.770102 6.54643295 12.0493281 7.19727294 12.6587934 7.4038692 12.8532294 7.50887369 12.951544 7.61424671 13.0471945 8.7778571 14.1034411 9.65565492 14.3221948 10.8662711 13.4563213 11.1225699 13.2730573 11.355647 13.0822388 11.7138094 12.7715421 11.7434827 12.7458013 11.926341 12.586689 11.9788139 12.541268 12.0786717 12.4548304 12.1596397 12.3856995 12.2370486 12.3210835 13.2848028 11.4464851 13.9528277 11.253553 14.8656443 11.774558 15.1748043 11.9510379 15.4106324 12.1496045 15.9309494 12.6412476L15.9378236 12.6477429C16.5999749 13.2733994 16.9195209 13.530404 17.383836 13.7396498 18.5638631 14.2702097 19.3175983 13.8472462 20.7497122 12.3845466L20.7622958 12.3716941C21.3136335 11.6157097 21.3136335 10.997898 20.292487 11.6637671z" transform="translate(39.74 8.217)"/>
    <g transform="translate(0 29.348)">
      <polygon fill="#FF957A" points="0 0 42.261 0 42.261 23.478 0 24.652"/>
      <polygon fill="#FFCD7C" points="4.109 17.609 7.043 17.609 7.043 19.957 3.522 19.957 3.522 17.609"/>
      <polygon fill="#FFCD7C" points="8.804 17.609 11.739 17.609 11.739 19.957 8.217 19.957 8.217 17.609"/>
      <polygon fill="#FFCD7C" points="13.5 17.609 16.435 17.609 16.435 19.957 12.913 19.957 12.913 17.609"/>
      <polygon fill="#375471" points="7.043 4.696 42.261 4.696 42.261 10.565 0 10.565 0 4.696"/>
    </g>
    <g transform="translate(18.783 8.217)">
      <path fill="#FEFEFE" d="M8.80180754,0.199315342 C6.83677899,0.693740996 4.91997641,1.41452089 3.09674663,2.34465916 C2.72677422,2.53393148 2.35464244,2.73556444 2.05376994,3.03376491 C1.77521095,3.30878918 1.56863102,3.65565968 1.36636984,3.99866748 C0.790537299,4.9705229 0.20678706,5.98100533 0.0462737389,7.11972942 C-0.20709258,8.91124987 0.625705234,10.6517827 1.431151,12.2439878 C1.6938746,12.7646798 1.96163673,13.2923247 2.34024663,13.7234021 C2.67710866,14.1058094 3.08954872,14.4001472 3.50126899,14.6852145 C4.15483892,15.139468 4.82640363,15.5859962 5.57066719,15.8301189 C6.06660296,15.9931248 6.58485225,16.0626534 7.10022238,16.1314095 C8.45990696,16.3114113 9.82822904,16.4898681 11.1965511,16.4187944 C11.7234379,16.390983 12.2604017,16.3229994 12.7325844,16.0719239 C13.2242015,15.8100328 13.6085697,15.3689124 13.982141,14.9378351 C15.0711843,13.6793673 16.2142119,12.3003832 16.4042367,10.5953873 C16.4603803,10.0893735 16.4279898,9.57872451 16.3955992,9.07039313 C16.3646482,8.58446542 16.334417,8.09931024 16.303466,7.61415507 C16.2768337,7.19621089 16.2502015,6.77517654 16.1501506,6.37036554 C15.914779,5.41473345 15.299358,4.63060527 14.8278951,3.78235625 C14.6198756,3.40844685 14.4370487,3.01676903 14.2103147,2.65522027 C13.2457952,1.11941058 11.5449298,0.261118549 9.83614674,0"/>
      <circle cx="8.217" cy="6.422" r="3.522" fill="#3CB3C9"/>
      <path fill="#3CB3C9" d="M9.39130435,16.9872123 C12.3088086,16.9872123 14.0869565,16.7147692 14.0869565,13.8880496 C14.0869565,11.06133 11.2857039,9.94373402 8.36819969,9.94373402 C5.45069547,9.94373402 3.52173913,11.06133 3.52173913,13.8880496 C3.52173913,16.7147692 6.47380013,16.9872123 9.39130435,16.9872123 Z"/>
    </g>
  </g>
</svg>
