<svg width="160" height="140" viewBox="0 0 160 140" fill="none" xmlns="http://www.w3.org/2000/svg">
<path fill-rule="evenodd" clip-rule="evenodd" d="M13.7257 26H51H71H118L132 26.965L146.839 26.1694C148.494 26.0807 149.907 27.3501 149.996 29.0045C149.999 29.058 150 29.1116 150 29.1651V39.5104V47.2306L149 91.6217L150 105.132V113C150 114.105 149.105 115 148 115H137L109 113.817L68 115H35H12C10.8954 115 10 114.105 10 113V108.992V81.9715V52.0557V39.5104L11.7473 27.7071C11.8925 26.7264 12.7343 26 13.7257 26Z" fill="#F0F0EF"/>
<path fill-rule="evenodd" clip-rule="evenodd" d="M18.2584 33.775L38.9629 33L54.943 33.3875H58V50.9542L57.3052 63.3542C51.1911 63.7847 47.9488 64 47.5782 64C47.2077 64 39.3335 64 23.9556 64H17.5636L17 54.5708L17.5636 48.2417V39.5875L18.2584 33.775Z" fill="#FEFEFE"/>
<path fill-rule="evenodd" clip-rule="evenodd" d="M48.2301 42.2991C52.3345 48.0767 48.6331 55.2177 43.9168 57.9242C39.2005 60.6307 32.5672 61.1791 29.6425 56.5811C26.7178 51.9831 24.6895 43.5379 32.1524 39.4288C39.6152 35.3197 44.1256 36.5215 48.2301 42.2991Z" fill="#4E5747"/>
<path fill-rule="evenodd" clip-rule="evenodd" d="M42.8571 39.2309C42 41.3998 40.7143 44.3229 39 48C43.2857 46.058 46.2857 44.6532 48 43.7856C48 41.8336 45.2466 38.026 42.8571 39.2309Z" fill="#F3B244"/>
<path fill-rule="evenodd" clip-rule="evenodd" d="M64.5781 33.775L106.997 33L139.737 33.3875H146V50.9542L144.577 63.3542C132.05 63.7847 125.407 64 124.648 64C123.889 64 107.756 64 76.2505 64H63.1546L62 54.5708L63.1546 48.2417V39.5875L64.5781 33.775Z" fill="#FEFEFE"/>
<path d="M68 61C71.6 56 78.05 54.5 87.35 56.5C101.3 59.5 100.4 45.25 110.75 45.25C121.1 45.25 126.05 49.75 140 43" stroke="#73C9D9" stroke-width="2" stroke-linecap="round"/>
<path d="M68 58C74.6 49.871 79.85 45.8064 83.75 45.8064C89.6 45.8064 96.8 53.9355 107.15 53.9355C117.5 53.9355 130.1 37 140 37" stroke="#F3B244" stroke-width="2" stroke-linecap="round"/>
<path fill-rule="evenodd" clip-rule="evenodd" d="M18.0256 70.025L51.3549 69L77.0789 69.5125H82V92.7458L80.8816 109.146C71.0394 109.715 65.82 110 65.2235 110C64.627 110 51.9514 110 27.1968 110H16.9072L16 97.5292L16.9072 89.1583V77.7125L18.0256 70.025Z" fill="#FEFEFE"/>
<path d="M35.2584 78.025L55.9629 78L71.9429 78.0125H75V78.5792L74.3052 78.9792C68.1911 78.9931 64.9488 79 64.5782 79C64.2077 79 56.3335 79 40.9556 79H34.5636L34 78.6958L34.5636 78.4917V78.2125L35.2584 78.025Z" fill="#73C9D9"/>
<path d="M35.2584 88.025L55.9629 88L71.9429 88.0125H75V88.5792L74.3052 88.9792C68.1911 88.9931 64.9488 89 64.5782 89C64.2077 89 56.3335 89 40.9556 89H34.5636L34 88.6958L34.5636 88.4917V88.2125L35.2584 88.025Z" fill="#73C9D9"/>
<path d="M35.2584 99.025L55.9629 99L71.9429 99.0125H75V99.5792L74.3052 99.9792C68.1911 99.9931 64.9488 100 64.5782 100C64.2077 100 56.3335 100 40.9556 100H34.5636L34 99.6958L34.5636 99.4917V99.2125L35.2584 99.025Z" fill="#73C9D9"/>
<path d="M28.6152 77.152C29.5075 78.408 28.7029 79.9604 27.6776 80.5487C26.6523 81.1371 25.2103 81.2563 24.5745 80.2568C23.9387 79.2572 23.4977 77.4213 25.1201 76.528C26.7424 75.6347 27.723 75.896 28.6152 77.152Z" fill="#F3B244"/>
<path d="M28.6152 88.152C29.5075 89.408 28.7029 90.9604 27.6776 91.5487C26.6523 92.1371 25.2103 92.2563 24.5745 91.2568C23.9387 90.2572 23.4977 88.4213 25.1201 87.528C26.7424 86.6347 27.723 86.896 28.6152 88.152Z" fill="#F3B244"/>
<path d="M28.6152 97.152C29.5075 98.408 28.7029 99.9604 27.6776 100.549C26.6523 101.137 25.2103 101.256 24.5745 100.257C23.9387 99.2572 23.4977 97.4213 25.1201 96.528C26.7424 95.6347 27.723 95.896 28.6152 97.152Z" fill="#F3B244"/>
<path fill-rule="evenodd" clip-rule="evenodd" d="M88.7494 70L117.534 69L139.75 69.5H144V92.1667L143.034 108.167C134.534 108.722 130.026 109 129.511 109C128.996 109 118.049 109 96.67 109H87.7835L87 96.8333L87.7835 88.6667V77.5L88.7494 70Z" fill="#FEFEFE"/>
<path d="M112.184 91.275L115.214 91L117.553 91.1375H118V97.3708L117.898 101.771C117.004 101.924 116.529 102 116.475 102C116.421 102 115.268 102 113.018 102H112.082L112 98.6542L112.082 96.4083V93.3375L112.184 91.275Z" fill="#375471"/>
<path d="M94.1842 96.15L97.2141 96L99.5526 96.075H100V99.475L99.8983 101.875C99.0036 101.958 98.5291 102 98.4749 102C98.4206 102 97.2683 102 95.0179 102H94.0825L94 100.175L94.0825 98.95V97.275L94.1842 96.15Z" fill="#375471"/>
<path d="M122.184 78.6L125.214 78L127.553 78.3H128V91.9L127.898 101.5C127.004 101.833 126.529 102 126.475 102C126.421 102 125.268 102 123.018 102H122.082L122 94.7L122.082 89.8V83.1L122.184 78.6Z" fill="#375471"/>
<path d="M104.184 83.475L107.214 83L109.553 83.2375H110V94.0042L109.898 101.604C109.004 101.868 108.529 102 108.475 102C108.421 102 107.268 102 105.018 102H104.082L104 96.2208L104.082 92.3417V87.0375L104.184 83.475Z" fill="#375471"/>
<path d="M132.184 86.4L135.214 86L137.553 86.2H138V95.2667L137.898 101.667C137.004 101.889 136.529 102 136.475 102C136.421 102 135.268 102 133.018 102H132.082L132 97.1333L132.082 93.8667V89.4L132.184 86.4Z" fill="#375471"/>
</svg>
